<svg id="Layer_1" data-name="Layer 1" xmlns="http://www.w3.org/2000/svg" viewBox="0 0 289.07 335.9"><defs><style>.cls-1{fill:#cedd80;}.cls-2{fill:#4f7d39;}.cls-3{fill:#839e3c;}.cls-4{fill:#a3bf4c;}</style></defs><circle class="cls-1" cx="148.72" cy="191.8" r="121.23"/><path class="cls-2" d="M79.21,315.53c-.36.33-.81.72-1.15,1a.61.61,0,0,1-1,0l-4.57-3.56c-.23-.18-.28-.34-.17-.51s.18-.12.58-.24.4-.22.72-.62L77,307.39c.32-.41.41-.53.43-.84s0-.5.1-.63.3-.13.53.05l4.33,3.37a.61.61,0,0,1,.18.93c-.22.41-.49.94-.73,1.37s-.36.38-.57.21c-.41-.31-.27-.87-.19-1.32a1.3,1.3,0,0,0-.47-1.37l-.1-.08c-.73-.57-.83-.64-1.32,0l-1.14,1.45a.33.33,0,0,0,0,.44l.32.24c.49.39,1.17-.35,1.51-.09s-.1.61-.67,1.35-.84,1.22-1.14,1,.21-1.1-.29-1.49l-.31-.24a.3.3,0,0,0-.43,0l-1.45,1.86c-.26.4-.15.55.44,1l.41.31a1.29,1.29,0,0,0,1.45.12c.42-.17.92-.45,1.33-.13C79.49,315.08,79.45,315.3,79.21,315.53Z" transform="translate(-11.63 -8.55)"/><path class="cls-2" d="M91,325.49a.31.31,0,0,1-.42.09L87,323.37c-.25-.16-.31-.3-.23-.49.22-.35,1.29-.05,1.24-1L88,320.26a.28.28,0,0,0-.38-.26l-1.56.65c-1,.42-.22,1.08-.5,1.42-.13.16-.29.17-.54,0l-2-1.22c-.24-.15-.32-.3-.22-.48.21-.39.94.09,2.15-.4l2.75-1.16a.29.29,0,0,0,.17-.27l-.15-3.26c-.08-1.21-.53-1.53-.27-1.91a.33.33,0,0,1,.45-.07l3.5,2.2c.25.16.3.31.22.49-.22.36-1.29.05-1.25.95l.08,1.62a.29.29,0,0,0,.39.24l1.49-.63c1-.41,0-1.19.31-1.54.12-.16.29-.17.54,0l1.88,1.18c.25.15.31.31.23.48-.23.39-.68.08-1.88.57L90.71,320a.24.24,0,0,0-.17.27l.16,3.32C90.76,324.81,91.23,325.11,91,325.49Z" transform="translate(-11.63 -8.55)"/><path class="cls-2" d="M106,328.42a4.62,4.62,0,1,1-2.14-6.17A4.62,4.62,0,0,1,106,328.42ZM103.55,327c.58-1.87.32-3.63-.68-3.95s-2.24,1-2.82,2.87-.32,3.64.7,4S103,328.83,103.55,327Z" transform="translate(-11.63 -8.55)"/><path class="cls-2" d="M119.3,331.57c-.48-.17-.53-.74-.59-1.18a1.08,1.08,0,0,0-.73-1.12l0,0c-.29-.1-.43-.08-.55.1a4.74,4.74,0,0,0-.21.5L115.33,335c-.17.48-.22.64-.13.94s.17.47.1.62-.24.22-.52.12l-2.67-1c-.28-.1-.37-.23-.32-.43s.13-.17.48-.41.31-.32.49-.81l1.84-5.12a2.82,2.82,0,0,0,.16-.51c0-.22-.07-.33-.35-.43h0a1.07,1.07,0,0,0-1.28.4c-.34.3-.74.7-1.21.53-.25-.1-.29-.3-.13-.6s.55-.94.78-1.35a.61.61,0,0,1,.87-.34l6.19,2.23a.61.61,0,0,1,.46.82c-.09.46-.17,1.07-.27,1.54S119.55,331.66,119.3,331.57Z" transform="translate(-11.63 -8.55)"/><path class="cls-2" d="M127,339.41c.14.4.21.44.17.62s-.23.24-.51.17l-2.74-.72c-.29-.08-.4-.2-.36-.4s.11-.18.43-.46.28-.35.41-.84l1.38-5.27c.13-.49.17-.64.06-.93s-.21-.46-.15-.62.22-.24.51-.17l2.74.72c.28.08.39.2.36.4s-.13.18-.45.45-.28.36-.41.85L127,338.47C126.88,339,126.85,339.12,127,339.41Z" transform="translate(-11.63 -8.55)"/><path class="cls-2" d="M141.77,340.72a3.68,3.68,0,0,1-4.14,1.91,4.44,4.44,0,0,1-3.64-5.39,4.32,4.32,0,0,1,5.09-3.73c3,.52,3.35,2.5,3.26,3.07a1.18,1.18,0,0,1-1.4,1c-1-.16-1-1-1.17-1.56-.1-.41-.12-1.3-1.09-1.46-1.13-.2-1.69.89-1.79,2.71-.13,2.35.73,3.33,2,3.54a2.54,2.54,0,0,0,2-.61.66.66,0,0,1,.79-.1A.45.45,0,0,1,141.77,340.72Z" transform="translate(-11.63 -8.55)"/><path class="cls-2" d="M156.91,343.61c.22.36.29.39.28.57s-.17.28-.46.27l-2.83-.17c-.3,0-.43-.12-.43-.32s.07-.21.34-.54.2-.4.23-.91l.08-1.25c0-.89.07-1.07-1.37-1.15s-1.46.09-1.52,1l-.07,1.26c0,.51,0,.67.12.93s.3.39.28.57-.16.29-.47.27l-2.83-.17c-.29,0-.42-.11-.43-.32s.09-.2.35-.53.21-.4.24-.91l.32-5.43a1.42,1.42,0,0,0-.12-.94c-.22-.36-.3-.4-.29-.57s.17-.28.47-.26l2.83.16c.31,0,.43.12.43.33s-.08.2-.34.53-.21.4-.24.91l-.06,1c0,.88-.06,1.06,1.39,1.15s1.44-.09,1.49-1l.07-1c0-.51,0-.66-.13-.93s-.3-.4-.27-.57.17-.29.46-.27l2.83.17c.3,0,.42.12.43.32s-.09.2-.35.53a1.42,1.42,0,0,0-.23.92l-.33,5.43C156.75,343.19,156.75,343.34,156.91,343.61Z" transform="translate(-11.63 -8.55)"/><path class="cls-2" d="M172.64,339.53a4.62,4.62,0,1,1-4.85-4.37A4.62,4.62,0,0,1,172.64,339.53Zm-2.82-.12c-.4-1.92-1.47-3.34-2.5-3.13s-1.48,2-1.09,3.87,1.49,3.34,2.53,3.13S170.22,341.33,169.82,339.41Z" transform="translate(-11.63 -8.55)"/><path class="cls-2" d="M186.4,336.08c.25,1.53-.7,3.11-2.91,3.47l-.6.09c-.73.12-.84.27-.77.84l.09.57c.08.51.12.67.32.88s.38.33.41.5-.11.31-.4.36l-2.8.45c-.29.05-.45,0-.49-.22s0-.21.22-.6.11-.43,0-.94l-.86-5.37c-.08-.5-.11-.65-.32-.87s-.38-.33-.4-.51.11-.31.4-.36l4.05-.65C184.77,333.34,186.16,334.56,186.4,336.08Zm-2.67.58c-.2-1.25-1-2-1.78-1.91s-.69.37-.5,1.59l.32,2c.09.43.25.52.82.43C183.68,338.55,183.89,337.65,183.73,336.66Z" transform="translate(-11.63 -8.55)"/><path class="cls-2" d="M200.4,336.55c.19,1.56-1.34,2.79-3.2,3.28-3.21.86-4.95-.85-4.36-1.91a1.13,1.13,0,0,1,1.79-.25c.46.51.93,1.39,2.28,1.13a1,1,0,0,0,.94-1c0-.51-.56-.82-1.13-1-1.35-.29-4.64-.17-4.79-2.86-.1-2,1.85-2.79,2.79-3.05,2.85-.76,4.87,1,4.16,2.05a1.17,1.17,0,0,1-1.72.23c-.52-.44-1-1.52-2.16-1.23a.93.93,0,0,0-.73,1.29c.23.55.85,1,2.29,1C198.84,334.39,200.2,334.78,200.4,336.55Z" transform="translate(-11.63 -8.55)"/><path class="cls-2" d="M209.13,334.85a1.32,1.32,0,1,1-1.64-.66A1.21,1.21,0,0,1,209.13,334.85Z" transform="translate(-11.63 -8.55)"/><path class="cls-2" d="M221.87,327.9a3.69,3.69,0,0,1-2.35,3.9,4.47,4.47,0,0,1-6.06-2.41,4.33,4.33,0,0,1,2.13-5.95c2.79-1.27,4.17.18,4.41.71a1.18,1.18,0,0,1-.6,1.6c-.88.4-1.42-.24-1.85-.64s-.83-1-1.73-.59-.89,1.69.05,3.25c1.22,2,2.48,2.34,3.62,1.82a2.52,2.52,0,0,0,1.32-1.63.66.66,0,0,1,.59-.53A.46.46,0,0,1,221.87,327.9Z" transform="translate(-11.63 -8.55)"/><path class="cls-2" d="M234.11,318.65a4.62,4.62,0,1,1-6.33-1.61A4.62,4.62,0,0,1,234.11,318.65Zm-2.56,1.21c-1.24-1.52-2.86-2.27-3.67-1.61s-.4,2.42.85,3.93,2.87,2.27,3.69,1.6S232.8,321.37,231.55,319.86Z" transform="translate(-11.63 -8.55)"/><path class="cls-2" d="M251.08,311.4c.12.17.07.32-.18.51l-2.54,2c-.23.18-.4.2-.53,0s-.08-.2-.09-.62c0-.24,0-.38-.43-.78l-3.05-2.81a.1.1,0,0,0-.17.11l1.88,5.41a.54.54,0,0,1-.18.63l-.32.25a.56.56,0,0,1-.66,0l-4.7-3.23a.09.09,0,0,0-.15.11l1.95,3.68c.28.54.41.54.63.62.41.12.48.1.59.24s.06.33-.17.51l-1.26,1c-.24.18-.4.19-.54,0-.24-.32.15-.81-.28-1.65l-2.58-4.88c-.24-.46-.38-.55-.68-.64s-.48-.11-.58-.25,0-.33.18-.51l2.25-1.73a.44.44,0,0,1,.53,0l3.45,2.77c.09.06.21,0,.16-.11L242,307.81a.39.39,0,0,1,.15-.52l2.24-1.73c.23-.18.39-.18.53,0s.07.21.08.64a1.06,1.06,0,0,0,.46.82l4.07,3.73C250.26,311.35,250.84,311.09,251.08,311.4Z" transform="translate(-11.63 -8.55)"/><path class="cls-3" d="M132.92,303.23c-.09.5-.21,1.13-.29,1.63a.66.66,0,0,1-.77.66h-6.19c-.31,0-.46-.1-.48-.32s.07-.22.33-.59.2-.44.2-1v-5.81c0-.55,0-.72-.2-1s-.34-.41-.33-.59.17-.32.48-.32h5.86a.66.66,0,0,1,.77.66c.08.5.21,1.13.29,1.64,0,.35-.06.56-.34.56-.55,0-.8-.56-1-1a1.4,1.4,0,0,0-1.31-.85h-.13c-1,0-1.12,0-1.13.85v2a.33.33,0,0,0,.33.33h.43c.67,0,.75-1.07,1.22-1.07s.31.58.31,1.58.1,1.58-.31,1.58-.55-1.07-1.22-1.07H129a.32.32,0,0,0-.33.32v2.52c0,.51.23.56,1,.56h.55a1.4,1.4,0,0,0,1.31-.85c.23-.42.48-1,1-1C132.86,302.66,133,302.87,132.92,303.23Z" transform="translate(-11.63 -8.55)"/><path class="cls-3" d="M141.88,303.14c-.23,1.66-2.15,2.51-4.21,2.51-3.55,0-4.88-2.25-4-3.18a1.23,1.23,0,0,1,1.93.23c.32.66.57,1.71,2,1.8a1.07,1.07,0,0,0,1.25-.78c.09-.54-.36-1-.91-1.29-1.31-.67-4.74-1.45-4.15-4.28.45-2.1,2.67-2.37,3.71-2.37,3.16,0,4.75,2.4,3.73,3.26a1.23,1.23,0,0,1-1.83-.25c-.42-.58-.62-1.83-1.9-1.86a1,1,0,0,0-1.11,1.14c.08.63.61,1.26,2.09,1.7C140.87,300.48,142.16,301.26,141.88,303.14Z" transform="translate(-11.63 -8.55)"/><path class="cls-3" d="M150.85,298.77c-.53,0-.79-.55-1-1s-.33-.86-1.14-.86h-.06c-.33,0-.46.07-.52.3s0,.32,0,.58v5.81c0,.55,0,.73.21,1s.34.41.33.59-.17.32-.48.32h-3c-.32,0-.46-.1-.48-.32s.07-.22.34-.59.19-.44.19-1v-5.81a3.1,3.1,0,0,0,0-.58c0-.23-.19-.3-.5-.3h-.06c-.81,0-1,.53-1.14.86s-.49,1-1,1c-.28,0-.39-.19-.34-.55.08-.51.21-1.15.29-1.65s.29-.66.75-.66h7a.65.65,0,0,1,.76.66c.08.5.22,1.14.28,1.65C151.26,298.58,151.14,298.77,150.85,298.77Z" transform="translate(-11.63 -8.55)"/><path class="cls-3" d="M153.55,304.41a1.41,1.41,0,1,1-1.41-1.25A1.28,1.28,0,0,1,153.55,304.41Z" transform="translate(-11.63 -8.55)"/><path class="cls-3" d="M165,302.72s-.25,1.89-.32,2.25a.55.55,0,0,1-.64.55h-5.38c-.69,0-.74-.36-.74-.79,0-3.45,3.56-4.36,4.19-6.28a1.83,1.83,0,0,0,0-1,.73.73,0,0,0-.71-.64c-.31,0-.81.11-1,1.14a1.16,1.16,0,0,1-1.66.92,1,1,0,0,1-.5-1.26c.43-1.39,2.07-1.84,3.24-1.84,2.78,0,3.73,1.53,3.41,3-.59,2.76-4.21,3.1-4.54,4.46,0,.14-.09.29.14.29h2.14c.58,0,.8-.19.93-.47s.48-.89,1-.89C164.83,302.17,165.08,302.22,165,302.72Z" transform="translate(-11.63 -8.55)"/><path class="cls-3" d="M174.45,300.72c0,2.92-1.83,4.93-4.34,4.93s-4.35-2-4.35-4.93,1.83-4.94,4.35-4.94S174.45,297.81,174.45,300.72Zm-3-.18c-.3-2.16-1.15-3.82-1.89-3.71s-1.08,1.94-.78,4.08,1.14,3.8,1.88,3.69S171.74,302.68,171.44,300.54Z" transform="translate(-11.63 -8.55)"/><path class="cls-3" d="M182.27,302.72S182,304.61,182,305a.56.56,0,0,1-.65.55h-5.37c-.69,0-.74-.36-.74-.79,0-3.45,3.56-4.36,4.19-6.28a1.83,1.83,0,0,0,0-1,.73.73,0,0,0-.72-.64c-.3,0-.8.11-1,1.14a1.15,1.15,0,0,1-1.66.92,1,1,0,0,1-.49-1.26c.43-1.39,2.07-1.84,3.24-1.84,2.78,0,3.73,1.53,3.41,3-.59,2.76-4.21,3.1-4.54,4.46,0,.14-.09.29.14.29H180c.58,0,.8-.19.93-.47s.48-.89,1-.89C182.12,302.17,182.37,302.22,182.27,302.72Z" transform="translate(-11.63 -8.55)"/><path class="cls-3" d="M190.34,302.72s-.25,1.89-.32,2.25a.55.55,0,0,1-.64.55H184c-.69,0-.74-.36-.74-.79,0-3.45,3.56-4.36,4.2-6.28a1.94,1.94,0,0,0,0-1,.73.73,0,0,0-.71-.64c-.31,0-.81.11-1,1.14a1.16,1.16,0,0,1-1.66.92,1,1,0,0,1-.5-1.26c.43-1.39,2.07-1.84,3.24-1.84,2.78,0,3.73,1.53,3.41,3-.58,2.76-4.21,3.1-4.54,4.46,0,.14-.09.29.14.29H188c.58,0,.8-.19.93-.47s.48-.89,1-.89C190.19,302.17,190.43,302.22,190.34,302.72Z" transform="translate(-11.63 -8.55)"/><path class="cls-3" d="M123.3,31.1h.06a1.05,1.05,0,0,1,.73.47A6.48,6.48,0,0,1,125,33c.14-.22.29-.43.44-.63a8.22,8.22,0,0,0-1.59-4,3.13,3.13,0,0,0-1.18.89l.35,1C123.1,30.47,123.21,30.79,123.3,31.1Z" transform="translate(-11.63 -8.55)"/><path class="cls-1" d="M120.33,34a4,4,0,0,1,.28.4,5.75,5.75,0,0,1,.39-.82,9.48,9.48,0,0,1,1.67-2.07,1.55,1.55,0,0,1,.27-.24c.29-.2-.41-1.42-.52-1.65A9.91,9.91,0,0,0,121,27.13c-.27-.3-.5-.44-.71-.41s-.57.48-.79.94a11.51,11.51,0,0,0-1,2.69,8.92,8.92,0,0,1,1.28,1.92A4.68,4.68,0,0,1,120.33,34Z" transform="translate(-11.63 -8.55)"/><path class="cls-3" d="M117.39,35.22c-.06-.12.11-.54.14-.66s.15-.5.23-.75a7.75,7.75,0,0,1,.52-1.34,6.22,6.22,0,0,1,.83.38c.16.1.68.39.74.58a5,5,0,0,0-.39-1,7.81,7.81,0,0,0-2.1-2.67A10.19,10.19,0,0,0,116,32.2a5.13,5.13,0,0,0-.22,1.06,1.84,1.84,0,0,1,.22.17A5.59,5.59,0,0,1,117.39,35.22Z" transform="translate(-11.63 -8.55)"/><path class="cls-2" d="M115.2,39.12c-.07-.08.14-.73.17-.85a8.73,8.73,0,0,1,.28-1c.21-.65.55-2,1.5-1.64a5.76,5.76,0,0,0-.71-1.26c-.14-.19-.75-1-1-.8a.92.92,0,0,0-.23.29,8.09,8.09,0,0,0-1.12,3.08A6.51,6.51,0,0,0,114,38,8.82,8.82,0,0,1,115.2,39.12Z" transform="translate(-11.63 -8.55)"/><path class="cls-2" d="M113.11,42.17s1.09.33,1.21.4a5.37,5.37,0,0,1,1.09.8c.06-.23.12-.46.19-.69s-.25-.65-.3-.83a6.53,6.53,0,0,1-.16-2.2c0-.16-.5-.57-.62-.69a5.09,5.09,0,0,0-.91-.77,4.95,4.95,0,0,0-.5,4Z" transform="translate(-11.63 -8.55)"/><path class="cls-3" d="M125.29,34.22c.08.37.15.75.26,1.11a2,2,0,0,1,1.09,1.24c.06.13.1.27.16.4.15.29.38.09.56-.12.48-.55.22-1.38.09-2A8.1,8.1,0,0,0,127,33.4c-.11-.27-.43-1.24-.76-1.31s-.76.61-.91.87a2,2,0,0,0-.07,1.24Z" transform="translate(-11.63 -8.55)"/><path class="cls-2" d="M127.18,37.69a1.88,1.88,0,0,0,.09,1.17,4.86,4.86,0,0,1,.13,1.7,5.84,5.84,0,0,1-.26,1.27l.13.26a7.07,7.07,0,0,1,1.88-1.59,4.07,4.07,0,0,0,.08-.61,6,6,0,0,0-.91-3.52c0,.06-.56.55-.61.6A1.83,1.83,0,0,0,127.18,37.69Z" transform="translate(-11.63 -8.55)"/><path class="cls-2" d="M129.74,43.21a13.72,13.72,0,0,0-.39-2c0-.11,0-.22-.08-.33l0,0-.25.16a6.45,6.45,0,0,0-1.54,1.42s.32.81.34.9a3,3,0,0,1-.15,1.52,2.91,2.91,0,0,1-.69,1c-.11.11-.45.28-.51.4s.13.46.18.63a4.88,4.88,0,0,1,.53-.48,9.22,9.22,0,0,1,1.48-.89c.17-.08.4-.28.58-.16a1.68,1.68,0,0,1,.2.44.15.15,0,0,0,.06-.1A5.79,5.79,0,0,0,129.74,43.21Z" transform="translate(-11.63 -8.55)"/><path class="cls-2" d="M129.16,46.76l-.18-.91a9.22,9.22,0,0,0-1.59.94,4.58,4.58,0,0,0-.64.6,4.63,4.63,0,0,1,.12.9c0,.06-.06,1,0,1a5.35,5.35,0,0,0,.55-.11c.24-.06.27-.12.35.1a2.38,2.38,0,0,1,0,1c0,.22,0,1-.15,1.14A4.92,4.92,0,0,0,129.16,46.76Z" transform="translate(-11.63 -8.55)"/><path class="cls-2" d="M120.37,34.85a1.22,1.22,0,0,0-.18-.48,5,5,0,0,0-1.7-1.41c-.07.16-.14.33-.2.49-.16.43-.32.89-.44,1.35s-.31,1,0,1.35a5.91,5.91,0,0,1,1.33,2.35l.09.27.17-.21.36-.46a3.09,3.09,0,0,1,.63-.62s-.2-1.21-.19-1.33A8.25,8.25,0,0,0,120.37,34.85Z" transform="translate(-11.63 -8.55)"/><path class="cls-2" d="M115.21,46.74c-.12,0,0-1.32,0-1.42,0-.32,0-.65.07-1s.08-.49-.19-.77a3.88,3.88,0,0,0-1.43-.89c-.19-.06-.63-.24-.82-.17s-.26.61-.31.82a7.11,7.11,0,0,0,.18,3.88,3,3,0,0,0,.21.51A3.61,3.61,0,0,1,115.21,46.74Z" transform="translate(-11.63 -8.55)"/><path class="cls-2" d="M115.46,49.11a1.13,1.13,0,0,1,0-.18c.05,0,.14,0,.18,0-.15-.6-.33-1.18-.42-1.79,0-.21-1.5.44-1.62.51-.43.28-1,.7-.85,1.27a4.13,4.13,0,0,0,1.11,1.74A4.68,4.68,0,0,0,115.65,52c-.16-.06-.16-1.31-.16-1.5A7.71,7.71,0,0,1,115.46,49.11Z" transform="translate(-11.63 -8.55)"/><path class="cls-3" d="M125.16,35a3.5,3.5,0,0,0-.22-1,6.49,6.49,0,0,0-.58-1.39c-.18-.32-.49-1-.9-1.08s-1,.63-1.25.95a7.76,7.76,0,0,0-1,1.62,4.17,4.17,0,0,0-.47,2.88c.11.3.2.22.47.23.71,0,1.15.59,1.59,1.07a6.12,6.12,0,0,1,.67-1.1,8.27,8.27,0,0,1,.81-1c.25-.26.69-.52.84-.84A.87.87,0,0,0,125.16,35Z" transform="translate(-11.63 -8.55)"/><path class="cls-2" d="M117.63,36.45c-.19-.2-.52-.54-.83-.49s-.57.62-.66,1c-.16.58-.36,1.16-.48,1.75a6.62,6.62,0,0,0,.15,3.45c-.06-.16.31-.82.39-1,.23-.47.58-1.16,1.14-1.31a.92.92,0,0,1,.92.43c-.1-.12.29-.56.36-.65.56-.83-.06-1.91-.56-2.63A4.3,4.3,0,0,0,117.63,36.45Z" transform="translate(-11.63 -8.55)"/><path class="cls-2" d="M124.78,36.16a9.47,9.47,0,0,0-.94,1.1c-.3.37-.81,1.09-.66,1.6.09.29.33.57.45.85a7,7,0,0,1,.38,1c.38-.42.91-1.09,1.54-1,.83.08.9,1,1.3,1.53a5.27,5.27,0,0,1,.19-.68,3.51,3.51,0,0,0,0-1.21,7.67,7.67,0,0,0-.8-2.58c-.21-.42-.51-1.29-1.09-.89A1.9,1.9,0,0,0,124.78,36.16Z" transform="translate(-11.63 -8.55)"/><path class="cls-2" d="M127.05,45.2a2.16,2.16,0,0,0,.43-1.3,5,5,0,0,0-.6-1.77c-.17-.37-.35-.74-.55-1.1s-.37-1-.86-1a1.68,1.68,0,0,0-.85.45,3.23,3.23,0,0,0-.37.37c-.16.23-.09.36-.06.64a13.64,13.64,0,0,1-.1,2.29,1.6,1.6,0,0,1,1,.5A9.32,9.32,0,0,1,126.24,46,6.28,6.28,0,0,0,127.05,45.2Z" transform="translate(-11.63 -8.55)"/><path class="cls-2" d="M115.52,45.32a10.19,10.19,0,0,0,.47,3.34c0,.11.07.21.1.3a5.28,5.28,0,0,1,.93.18c-.28-.08.26-3,.41-3.35a1.05,1.05,0,0,1,.88-.67,6.09,6.09,0,0,1-.24-4.44h0c-.19-.24-.45-.6-.8-.41s-.69.94-.89,1.36a9.81,9.81,0,0,0-.58,1.68A9.1,9.1,0,0,0,115.52,45.32Z" transform="translate(-11.63 -8.55)"/><path class="cls-2" d="M120.12,38.34l-.36.46a6.62,6.62,0,0,0-1.54,3.44,5.13,5.13,0,0,0,.15,1.91,2.18,2.18,0,0,0,.36.89c.24.31.57.32.88.51a3.42,3.42,0,0,1,.68.58c.11.12.43.55.62.45a.42.42,0,0,0,.14-.18,5.38,5.38,0,0,1,.93-1.47,3.54,3.54,0,0,1,1.68-1,6.36,6.36,0,0,0-1.2-5.42c-.43-.54-1.21-1.18-1.87-.65A3.59,3.59,0,0,0,120.12,38.34Z" transform="translate(-11.63 -8.55)"/><path class="cls-2" d="M119.5,50.56a4.14,4.14,0,0,1,1.06-1.71c.07-.06,0-.6,0-.7,0-.29.21-.76.09-1a2.4,2.4,0,0,0-.46-.55,3.6,3.6,0,0,0-1.35-.9c-.35-.12-.74-.24-1,.1a2.32,2.32,0,0,0-.26,1,16.92,16.92,0,0,0-.23,2.46c0,.09.75.39.84.44a4.09,4.09,0,0,1,1,.89c.06.08.12.15.17.23Z" transform="translate(-11.63 -8.55)"/><path class="cls-2" d="M126.39,47.54a5.85,5.85,0,0,0-.65-1.62,13,13,0,0,0-1.19-1.62l0,0c-.12-.14-.81.05-1,.1a3.5,3.5,0,0,0-2,1.69,4.21,4.21,0,0,0-.46,1.27c0,.25,0,1.07-.19,1.22a1.86,1.86,0,0,1,.74-.38c.43-.07.7.57.91.85,0,.21.53.74.66.92a5.55,5.55,0,0,0,.57.88,7.36,7.36,0,0,1,1.09-.84,6.28,6.28,0,0,1,.79-.37,4.76,4.76,0,0,0,.67-.23A3.9,3.9,0,0,0,126.39,47.54Z" transform="translate(-11.63 -8.55)"/><path class="cls-2" d="M116.07,52.1l0,.06c.27.32.77.23,1.13.28a2.45,2.45,0,0,1,1.3.58c-.2-.17.55-1.2.65-1.36.21-.36,0-.61-.31-.9a4,4,0,0,0-1.06-.87,7.42,7.42,0,0,0-2-.57v.07c0,.51,0,1,.05,1.54A2.73,2.73,0,0,0,116.07,52.1Z" transform="translate(-11.63 -8.55)"/><path class="cls-2" d="M120.68,50.13c.45-.11.91.72,1.12,1a3.85,3.85,0,0,1,.83,2.12l0,0a4,4,0,0,0,.19-.83,4.69,4.69,0,0,1,.33-.72c0-.08.37-.5.36-.54a4.47,4.47,0,0,0-.42-.81,10.22,10.22,0,0,0-.63-.84c-.18-.23-.36-.46-.53-.7s-.25-.28-.57-.1a3.48,3.48,0,0,0-1.51,2,3,3,0,0,0-.11.4l.65-.77A.53.53,0,0,1,120.68,50.13Z" transform="translate(-11.63 -8.55)"/><path class="cls-2" d="M123.72,52.43c.49-.21,1.16-.45,1.28-.48a4.48,4.48,0,0,1,2.06,0,6.67,6.67,0,0,0,.31-2.39,17.38,17.38,0,0,0-1.94.61A5.43,5.43,0,0,0,124,51.19c-.33.36-.92,1-.83,1.52C123.17,52.67,123.41,52.56,123.72,52.43Z" transform="translate(-11.63 -8.55)"/><path class="cls-2" d="M122.1,52.57a3.57,3.57,0,0,0-1.35-2,5.21,5.21,0,0,0-1.83,4.92c-.31-.61-.2-1.37-.56-1.94a2.22,2.22,0,0,0-1.57-.82c-.33,0-.67,0-1-.07-.16,0-1-.07-1.09-.25a3.82,3.82,0,0,0,1.54,1.9,11.2,11.2,0,0,0,2.22,1.1,4.32,4.32,0,0,0,1,.32,2.25,2.25,0,0,0,1.24-.26l.59-.26a4,4,0,0,1,.49-.09,3.65,3.65,0,0,0,.35-2.47Z" transform="translate(-11.63 -8.55)"/><path class="cls-2" d="M127.11,52.32a4.61,4.61,0,0,0-1.38-.14,4.37,4.37,0,0,0-2.89,1.45c-.14.15-.92,1.47-1,1.46h0a6.39,6.39,0,0,0,2,.08,5.34,5.34,0,0,0,1.88-.93c.35-.24.69-.49,1.05-.73.12-.08,1.13-.56,1.12-.61C127.84,52.62,127.51,52.43,127.11,52.32Z" transform="translate(-11.63 -8.55)"/><path class="cls-2" d="M160,75.83a39.87,39.87,0,0,1-3.43-2.93c2.51-4,3.09-8.8,2.54-13.42a23.78,23.78,0,0,0-5.23-12.54c-1.35-1.59-3.2-3.49-5.23-4.12a2.71,2.71,0,0,0-3,.84,5.92,5.92,0,0,0-.91,3.13,31.75,31.75,0,0,0,1.49,13.3,31.22,31.22,0,0,0,7.37,12c.31.31.64.61,1,.91a10.21,10.21,0,0,1-4.81,3.64c-4.59,1.62-9.45-.54-12.87-3.62-3.73-3.36-6.28-7.76-9.44-11.61s-6.92-7.09-11.85-7.91A10.51,10.51,0,0,0,104.24,59c-1-.07-2-.08-3-.06-4,.07-8.1.68-12.13-.07A13.88,13.88,0,0,1,82.66,56a11.83,11.83,0,0,1-2-2.33c-.23-.34-.37-.38-.24.07.58,2.06,2.53,3.67,4.35,4.64a17,17,0,0,0,6.42,1.81c4.21.39,8.43-.38,12.64-.13-1.48,4.2.07,10,4.47,11.71A4.56,4.56,0,0,0,114,70a6.14,6.14,0,0,0-.16-6.57c-1.76-2.76-5-3.86-8.18-4.26a8.65,8.65,0,0,1,4.54-3.94c4.6-1.71,9.61.58,13,3.69,3.73,3.43,6.28,7.86,9.45,11.76l.51.61c-3.32-1.63-7.78-.94-11.09.1-4.9,1.53-9.16,4.56-13.8,6.66-3.74,1.7-8.28,2.94-12.35,1.74-.2,0-3.05-.9-2.19-.07a5.85,5.85,0,0,0,3,1.27,18.83,18.83,0,0,0,9.47-.75c6.81-2.14,12.64-7.15,19.89-7.91a16.57,16.57,0,0,1,5.7.4c1,.24,2.05.67,3.1.85a.8.8,0,0,0,.47,0,17.9,17.9,0,0,0,8.7,4.93A11.82,11.82,0,0,0,155.81,74a24.36,24.36,0,0,0,3.05,2.11,14,14,0,0,0,2,1,1.75,1.75,0,0,0,.85.23C161.9,77.33,160.15,75.92,160,75.83Zm-46.4-8.13c-.42,2.19-2.28,3.75-4.54,3.06A6.8,6.8,0,0,1,105,66.43a8.81,8.81,0,0,1,.14-6.3C109.05,60.62,114.58,62.86,113.63,67.7Zm41.58,3.8A34,34,0,0,1,148,59.31a31,31,0,0,1-1.36-12.83c.08-.89.29-2.27,1.48-1.92a8.22,8.22,0,0,1,2.7,1.79A18.54,18.54,0,0,1,155,51.73a23.42,23.42,0,0,1,2.49,13.68,17.29,17.29,0,0,1-2.08,6.29Z" transform="translate(-11.63 -8.55)"/><path class="cls-2" d="M92.6,64.23a11.44,11.44,0,0,1,3.28,2.37A11.88,11.88,0,0,1,98.21,70a1.54,1.54,0,0,0,1.18-1.73A3.07,3.07,0,0,1,101.2,71a13.34,13.34,0,0,1-.41,3.37,4.34,4.34,0,0,0,.47,3.31,8.9,8.9,0,0,1,.58,1.91,2.33,2.33,0,0,1,0,.86,7.6,7.6,0,0,1-.61,1.89,4.07,4.07,0,0,0-.59,3.29A11.91,11.91,0,0,1,101,89a3.06,3.06,0,0,1-2.49,2.59c.25-.74-.39-1.61-1.36-1.86a9.82,9.82,0,0,1-3.65,3,13.66,13.66,0,0,1-5.26,1.36,3,3,0,0,0,.52-1.9c-1.51.15-3,.22-4.55.3s-3.07.09-4.63,0c2.09-.66,3-2.38,3.87-3.91a6.32,6.32,0,0,1,4.26-3.5c-1.06,0-2.13,0-3.2,0a3.71,3.71,0,0,1,1.26-1.23,5,5,0,0,1,1.82-.7c.43-.08.88-.1,1.32-.14a9.54,9.54,0,0,0,1.32-.19c.84-.19,1.65-.72,1.67-1.45A1.63,1.63,0,0,0,90.81,80a3.32,3.32,0,0,0-2-.07c-2.31.58-3.31,2.82-5.35,4a6.45,6.45,0,0,1-3,.75A7.89,7.89,0,0,1,77.25,84l1-2.09A6.08,6.08,0,0,0,75,80.61a8.06,8.06,0,0,1-3.53-1.25,6.77,6.77,0,0,1-1.54-2.16,13.53,13.53,0,0,0-.88-1.42c-.32-.46-.67-.87-1-1.3s-.73-.84-1.11-1.25-.77-.83-1.17-1.24a1.14,1.14,0,0,1-.23-1.38v0a1.21,1.21,0,0,1,1.34-.46A18.76,18.76,0,0,0,70,70.7a8.51,8.51,0,0,0,3-.29,6.67,6.67,0,0,1,2.34-.49,7.41,7.41,0,0,1,3,1.19,4.05,4.05,0,0,0,3,.71l.34-2.3a6.08,6.08,0,0,1,2.52.94A6,6,0,0,1,86,72.36c1.12,1.82,1.16,4.31,3.11,5.61a2.93,2.93,0,0,0,1.91.52,1.54,1.54,0,0,0,1.39-1.06c.15-.71-.45-1.42-1.14-1.83a7.85,7.85,0,0,0-1.09-.53,8.43,8.43,0,0,1-1.08-.55,3.83,3.83,0,0,1-1.26-1.24,3.55,3.55,0,0,1-.54-1.61c.82.37,1.66.69,2.51,1-1.59-1-1.95-3-2-4.68s0-3.61-1-5c.88.58,1.81,1.12,2.75,1.67s1.92,1,2.92,1.52A4.33,4.33,0,0,0,92.6,64.23ZM76.93,74.62A5.38,5.38,0,0,0,74,71.94a3.09,3.09,0,0,0,1,1.74,4.23,4.23,0,0,0,.88.62A4,4,0,0,0,76.93,74.62Zm7.35,2.57a2.85,2.85,0,0,0-.61-2,13.37,13.37,0,0,0-1.56-1.64,3.43,3.43,0,0,0,.47,2.09A4.18,4.18,0,0,0,84.28,77.19Zm-12,1a4.19,4.19,0,0,0,1.92.37A3.23,3.23,0,0,0,75.94,78,6,6,0,0,0,72.33,78.19ZM83.9,80.13a3.45,3.45,0,0,0-2.37.5A5.3,5.3,0,0,0,80,82.2c.4-.08.8-.16,1.19-.26a6.53,6.53,0,0,0,1.13-.39A3.1,3.1,0,0,0,83.9,80.13Zm8.88,7.16A5.47,5.47,0,0,0,91,91.67,5.75,5.75,0,0,0,92.78,87.29Zm3.15-2.16A3.24,3.24,0,0,0,96.38,87a4.2,4.2,0,0,0,1.48,1.45A5.57,5.57,0,0,0,95.93,85.13Zm2.54-2.8a10.86,10.86,0,0,0-1.71.26,13.15,13.15,0,0,0-1.63.46,11.36,11.36,0,0,0-2.89,1.52,34.45,34.45,0,0,0-3.42,3.3,11.85,11.85,0,0,1-.9.82,8.34,8.34,0,0,1-1,.72,7.42,7.42,0,0,1-2.45,1c3-.47,5.23-2.12,7.31-3.81,1-.85,2-1.69,3.14-2.45a14.46,14.46,0,0,1,1.68-1A11.27,11.27,0,0,1,98.47,82.33ZM70.13,73.25a23.53,23.53,0,0,0,7.45,4.27,24.38,24.38,0,0,0,8.5,1.4C80.8,76.87,75.49,75,70.13,73.25Zm27.22-1.71a2.85,2.85,0,0,0-1.21,2.39,1.71,1.71,0,0,0,1.1,1.77A5.45,5.45,0,0,1,97.35,71.54ZM93.74,67.6a3,3,0,0,0-.58,2.69,4,4,0,0,0,1,1.94A30.09,30.09,0,0,1,93.74,67.6Zm-4.45-1.54a22.28,22.28,0,0,1,2.35,4.86c.33.84.67,1.7,1.08,2.53a11.8,11.8,0,0,0,1.51,2.34,7.91,7.91,0,0,0,2.25,1.87,6.71,6.71,0,0,0,2.9.86,7.89,7.89,0,0,1-2-.87,8.48,8.48,0,0,1-1.63-1.35,14.18,14.18,0,0,1-2.35-3.44C92.16,70.46,91.19,67.84,89.29,66.06Z" transform="translate(-11.63 -8.55)"/><path class="cls-4" d="M144.43,62.72a10,10,0,0,1,4,1.61A6.69,6.69,0,0,1,151,67.64a.83.83,0,0,1,.17.21.4.4,0,0,1-.11.56.47.47,0,0,1-.43.38.78.78,0,0,1-.22,0,12.88,12.88,0,0,0-2.67,1.84,6.81,6.81,0,0,1-1.56.87,6.43,6.43,0,0,1-2.28.4c.23-.17.19-.41,0-.61a1.79,1.79,0,0,0-.91-.48,12,12,0,0,0-2.32-.1,10.13,10.13,0,0,1-1.63-.17,9.39,9.39,0,0,1-1.62-.48,6.81,6.81,0,0,1-2.63-1.85,9.33,9.33,0,0,1-1.62-4.1,42,42,0,0,0-1.55-4.68c-.13-.35-.19-.86,0-.89s.53.22.7.52a5.19,5.19,0,0,0,3.48,2.47c1.18.2,2.31-.08,3.36.05a7.35,7.35,0,0,1,3.32,1.58,1.93,1.93,0,0,0,1.24.53C144.22,63.65,144.7,63.11,144.43,62.72Zm1,5.47a14,14,0,0,0-2.48.38c-.41.11-.81.21-1.19.34a9.55,9.55,0,0,0-1.07.45,6.71,6.71,0,0,0,2.73-.12A5.12,5.12,0,0,0,145.47,68.19Zm-.6-1.35-1.07,0h-1.06a13.91,13.91,0,0,1-2.13-.25,11.51,11.51,0,0,1-4.18-1.84,11.31,11.31,0,0,1-3.11-3.36,14.89,14.89,0,0,0,.78,1.33,13,13,0,0,0,1,1.24,11.1,11.1,0,0,0,2.43,2.1,10.25,10.25,0,0,0,3,1.3,8.81,8.81,0,0,0,3.14.24c.92-.11,1.83-.24,2.76-.29a8.72,8.72,0,0,1,2.78.25,5.58,5.58,0,0,0-2.08-.66A14.68,14.68,0,0,0,144.87,66.84Zm-6-4.28a7.29,7.29,0,0,0,.27,1.07,4.61,4.61,0,0,0,.55,1,3.27,3.27,0,0,0,2.14,1.29A21.93,21.93,0,0,0,138.88,62.56Z" transform="translate(-11.63 -8.55)"/><path class="cls-4" d="M129,70.54a8.36,8.36,0,0,1,6.23.58,6.7,6.7,0,0,1,2,1.56,7,7,0,0,1,1.15,1.84,1.45,1.45,0,0,1,.21.22.39.39,0,0,1-.07.58.44.44,0,0,1-.46.37,1.07,1.07,0,0,1-.25,0,7.84,7.84,0,0,0-1.62.78,16.32,16.32,0,0,0-1.39,1A14.63,14.63,0,0,1,132,79.23c.15-.44-.41-.86-1-.71a1.94,1.94,0,0,0-.73.4c-.22.19-.41.4-.61.61a11.76,11.76,0,0,1-4.2,3.15,19.66,19.66,0,0,1-4.34.76A29.88,29.88,0,0,0,115.87,85c-.41.14-1,.22-1,0s.3-.55.66-.74a9.7,9.7,0,0,0,1.13-.76,7.52,7.52,0,0,0,.94-.93,8,8,0,0,0,1.32-2.1c.54-1.3.67-2.62,1.56-4a10.44,10.44,0,0,1,5.35-3.72c.4-.12.82-.23,1.22-.37a6.8,6.8,0,0,0,1.22-.5C129.05,71.49,129.69,70.73,129,70.54Zm3.14,4.77a4.79,4.79,0,0,0-2.2,1.27q-.21.23-.39.45a5,5,0,0,0-.32.48,3.52,3.52,0,0,0-.39,1c.32-.27.64-.49.94-.77s.58-.52.85-.79A19.16,19.16,0,0,0,132.17,75.31Zm-1-1.13a10,10,0,0,0-1.22.49c-.39.18-.76.41-1.13.62s-.72.47-1.07.71l-1,.77c-1.38,1.1-2.69,2.27-4.06,3.39a26.8,26.8,0,0,1-4.36,3,38,38,0,0,0,6.11-3.77l2.83-2.06c.93-.67,1.86-1.31,2.82-1.93A8.42,8.42,0,0,1,133,74.28a7.39,7.39,0,0,1,3.24.11,5.77,5.77,0,0,0-2.47-.61A8.05,8.05,0,0,0,131.15,74.18ZM121.44,77a12.46,12.46,0,0,0,2.82-.36,9.36,9.36,0,0,0,3-1.39A10.4,10.4,0,0,0,121.44,77Z" transform="translate(-11.63 -8.55)"/><path class="cls-2" d="M89.46,53.39a2.17,2.17,0,0,1,.54.39,6.45,6.45,0,0,1,.5.53,13.24,13.24,0,0,1,1,1.38l1,1.57c.16.28.33.54.51.81l.56.81a.7.7,0,0,1,.21.11.69.69,0,0,1,.22.67.61.61,0,0,1-.12.68.63.63,0,0,1-.21.12,8.91,8.91,0,0,1-3,3.06,6.43,6.43,0,0,1-2.35.81,6.72,6.72,0,0,1-1.35.06,7.47,7.47,0,0,1-1.37-.25.53.53,0,0,0,.23-.73,1.7,1.7,0,0,0-.67-.8,3.54,3.54,0,0,0-1-.39c-.36-.1-.73-.16-1.1-.24a7.15,7.15,0,0,1-1.52-.51q-.37-.16-.75-.36c-.23-.15-.46-.3-.68-.47a5.77,5.77,0,0,1-1.19-1.12,6.74,6.74,0,0,1-.45-.64,3.52,3.52,0,0,1-.35-.7,5.37,5.37,0,0,1-.33-2.34c0-.38,0-.75.09-1.12s.11-.74.15-1.1a19.53,19.53,0,0,0-.1-4.78c0-.34,0-.83.32-.83s.56.26.69.56a4.43,4.43,0,0,0,3.08,2.67,5.28,5.28,0,0,0,.9.14l.92,0a10.47,10.47,0,0,1,1.64.1,3.43,3.43,0,0,1,2.35,2,6.22,6.22,0,0,0,.35.54.87.87,0,0,0,.52.3.74.74,0,0,0,.63-.26A1.06,1.06,0,0,0,89.46,53.39Zm-1.11,6.78a6,6,0,0,0-1.2-.18l-.62,0c-.2,0-.41,0-.61,0a6.2,6.2,0,0,0-.62.06c-.21,0-.41.05-.61.09a6.71,6.71,0,0,0-1.19.31,7.63,7.63,0,0,0,1.29.39,7,7,0,0,0,1.29.05,4.06,4.06,0,0,0,1.21-.23A4.45,4.45,0,0,0,88.35,60.17Zm-.09-1.78-.47-.11a3.59,3.59,0,0,1-.47-.12l-1-.24c-.31-.09-.62-.21-.94-.31l-.48-.17-.45-.21L84,57l-.24-.12-.22-.15c-.3-.19-.59-.38-.89-.59a11.41,11.41,0,0,1-1.55-1.48,10.1,10.1,0,0,1-2-3.73,11.36,11.36,0,0,0,2.6,5.28A8.37,8.37,0,0,0,86.84,59c1.76.19,3.44.39,5.14.6l-.46-.2-.45-.19a7.86,7.86,0,0,0-.93-.32c-.31-.09-.62-.2-.93-.27l-.48-.11C88.58,58.47,88.42,58.42,88.26,58.39Zm-3.7-5.85a7.2,7.2,0,0,0-.2,1.16c0,.2,0,.41,0,.6a3.7,3.7,0,0,0,.1.58A2.47,2.47,0,0,0,85,56a2.08,2.08,0,0,0,1,.71A14.55,14.55,0,0,0,84.56,52.54Z" transform="translate(-11.63 -8.55)"/><path class="cls-2" d="M148,45.38a5.29,5.29,0,0,1,.49,2.26,6.05,6.05,0,0,1-.39,2.17,9.76,9.76,0,0,1-2.29,3.32.57.57,0,0,1-.07.22.67.67,0,0,1-.62.29.72.72,0,0,1-.7,0,.43.43,0,0,1-.15-.15c-1.23-.38-2.48-.63-3.57-1a9.17,9.17,0,0,1-1.54-.58,3.26,3.26,0,0,1-1.09-.84c.51-.05,1-.67.83-1.05a1,1,0,0,0-.37-.46,4.35,4.35,0,0,0-.58-.27,3.18,3.18,0,0,1-2.18-2.23,7.84,7.84,0,0,1-.06-1.63,9.61,9.61,0,0,0,0-1.78,4.33,4.33,0,0,0-2.08-3.16c-.24-.14-.53-.47-.39-.72s.5-.32.79-.24a11.23,11.23,0,0,0,4.27.26c.67-.1,1.33-.23,2-.3a5.13,5.13,0,0,1,2.09.15,3.93,3.93,0,0,1,1.17.6,4.79,4.79,0,0,1,1,.93c.15.17.28.36.41.54s.23.4.34.6a6.61,6.61,0,0,1,.49,1.25c.09.31.17.62.28.92a2.42,2.42,0,0,0,.44.82C146.94,45.79,147.79,46,148,45.38Zm-5.39,4.29a3.35,3.35,0,0,0-3.43-1.43A6.64,6.64,0,0,0,142.63,49.67Zm1.23-1.22A9.44,9.44,0,0,0,142.71,47c-.21-.22-.44-.43-.65-.64l-.67-.61c-.46-.43-.94-.83-1.4-1.24s-.93-.82-1.41-1.2c-.94-.8-1.88-1.59-2.87-2.35,1.23,1.18,2.3,2.46,3.36,3.67a28.85,28.85,0,0,0,3.37,3.45A7.11,7.11,0,0,1,144.76,52a4.36,4.36,0,0,0-.12-1.83,5.75,5.75,0,0,0-.33-.87A4.92,4.92,0,0,0,143.86,48.45Zm-2-7.61a16.37,16.37,0,0,0,.06,2.63,6.3,6.3,0,0,0,.34,1.22,3.37,3.37,0,0,0,.68,1A6,6,0,0,0,141.82,40.84Z" transform="translate(-11.63 -8.55)"/><path class="cls-3" d="M199.74,31.1h-.06a1.05,1.05,0,0,0-.73.47,6.12,6.12,0,0,0-.88,1.42c-.14-.22-.29-.43-.44-.63a8,8,0,0,1,1.59-4,3.21,3.21,0,0,1,1.18.89c-.13.32-.24.65-.36,1S199.83,30.79,199.74,31.1Z" transform="translate(-11.63 -8.55)"/><path class="cls-1" d="M202.71,34a4.1,4.1,0,0,0-.29.4,5.79,5.79,0,0,0-.38-.82,9.48,9.48,0,0,0-1.67-2.07,2.91,2.91,0,0,0-.27-.24c-.3-.2.41-1.42.52-1.65A9.6,9.6,0,0,1,202,27.13c.26-.3.5-.44.7-.41s.57.48.8.94a12.48,12.48,0,0,1,1,2.69,8.57,8.57,0,0,0-1.28,1.92A4.68,4.68,0,0,0,202.71,34Z" transform="translate(-11.63 -8.55)"/><path class="cls-3" d="M205.65,35.22c.06-.12-.11-.54-.15-.66s-.14-.5-.22-.75a7.75,7.75,0,0,0-.52-1.34,5.69,5.69,0,0,0-.83.38c-.17.1-.69.39-.74.58a5.67,5.67,0,0,1,.38-1,8,8,0,0,1,2.11-2.67A9.82,9.82,0,0,1,207,32.2a5.17,5.17,0,0,1,.23,1.06,1.28,1.28,0,0,0-.22.17A5.32,5.32,0,0,0,205.65,35.22Z" transform="translate(-11.63 -8.55)"/><path class="cls-2" d="M207.83,39.12c.08-.08-.13-.73-.16-.85-.08-.34-.17-.67-.28-1-.21-.65-.55-2-1.5-1.64a5.76,5.76,0,0,1,.71-1.26c.14-.19.75-1,1-.8a.92.92,0,0,1,.23.29A8.06,8.06,0,0,1,209,36.94,5.6,5.6,0,0,1,209,38,8.33,8.33,0,0,0,207.83,39.12Z" transform="translate(-11.63 -8.55)"/><path class="cls-2" d="M209.93,42.17s-1.09.33-1.22.4a5.3,5.3,0,0,0-1.08.8c-.07-.23-.12-.46-.19-.69s.24-.65.29-.83a6.29,6.29,0,0,0,.17-2.2c0-.16.49-.57.62-.69a4.76,4.76,0,0,1,.91-.77,4.82,4.82,0,0,1,.7,2.87A4.71,4.71,0,0,1,209.93,42.17Z" transform="translate(-11.63 -8.55)"/><path class="cls-3" d="M197.75,34.22c-.08.37-.16.75-.27,1.11a1.94,1.94,0,0,0-1.08,1.24c-.06.13-.1.27-.17.4-.15.29-.37.09-.55-.12-.48-.55-.23-1.38-.1-2A8.14,8.14,0,0,1,196,33.4c.11-.27.43-1.24.75-1.31s.77.61.91.87a1.88,1.88,0,0,1,.07,1.24Z" transform="translate(-11.63 -8.55)"/><path class="cls-2" d="M195.86,37.69a2,2,0,0,1-.09,1.17,4.86,4.86,0,0,0-.13,1.7,5.84,5.84,0,0,0,.26,1.27l-.13.26a7.23,7.23,0,0,0-1.88-1.59,4.07,4.07,0,0,1-.08-.61,5.92,5.92,0,0,1,.9-3.52c0,.06.57.55.62.6A1.83,1.83,0,0,1,195.86,37.69Z" transform="translate(-11.63 -8.55)"/><path class="cls-2" d="M193.3,43.21a13.72,13.72,0,0,1,.39-2c0-.11.05-.22.08-.33l0,0,.25.16a6.45,6.45,0,0,1,1.54,1.42s-.33.81-.34.9a2.84,2.84,0,0,0,.83,2.56c.11.11.46.28.52.4s-.13.46-.18.63a4.88,4.88,0,0,0-.53-.48,9.31,9.31,0,0,0-1.49-.89c-.16-.08-.39-.28-.57-.16a2.17,2.17,0,0,0-.21.44s0-.06-.06-.1A5.8,5.8,0,0,1,193.3,43.21Z" transform="translate(-11.63 -8.55)"/><path class="cls-2" d="M193.87,46.76c.08-.36.19-.91.18-.91a8.52,8.52,0,0,1,1.59.94,4.67,4.67,0,0,1,.65.6,4.65,4.65,0,0,0-.13.9c0,.06.07,1,.05,1a4.86,4.86,0,0,1-.55-.11c-.25-.06-.27-.12-.35.1a2.38,2.38,0,0,0,0,1c0,.22,0,1,.15,1.14A4.9,4.9,0,0,1,193.87,46.76Z" transform="translate(-11.63 -8.55)"/><path class="cls-2" d="M202.67,34.85a1,1,0,0,1,.18-.48,5,5,0,0,1,1.7-1.41c.07.16.13.33.19.49a10.14,10.14,0,0,1,.44,1.35c.1.4.31,1,0,1.35a6.16,6.16,0,0,0-1.33,2.35,2.76,2.76,0,0,0-.08.27l-.17-.21-.37-.46a3.3,3.3,0,0,0-.62-.62s.19-1.21.19-1.33A8.25,8.25,0,0,1,202.67,34.85Z" transform="translate(-11.63 -8.55)"/><path class="cls-2" d="M207.83,46.74c.12,0,0-1.32,0-1.42,0-.32,0-.65-.07-1s-.09-.49.19-.77a3.72,3.72,0,0,1,1.43-.89c.19-.06.62-.24.82-.17s.26.61.31.82a7.11,7.11,0,0,1-.18,3.88,4.14,4.14,0,0,1-.21.51A3.65,3.65,0,0,0,207.83,46.74Z" transform="translate(-11.63 -8.55)"/><path class="cls-2" d="M207.58,49.11l0-.18c-.05,0-.14,0-.18,0a16,16,0,0,0,.41-1.79c0-.21,1.51.44,1.63.51.42.28,1,.7.84,1.27a4.1,4.1,0,0,1-1.1,1.74A4.71,4.71,0,0,1,207.38,52c.16-.06.16-1.31.17-1.5A7.71,7.71,0,0,0,207.58,49.11Z" transform="translate(-11.63 -8.55)"/><path class="cls-3" d="M197.87,35a3.9,3.9,0,0,1,.23-1,6.45,6.45,0,0,1,.57-1.39c.18-.32.5-1,.9-1.08s1,.63,1.25.95a7.41,7.41,0,0,1,1,1.62,4.23,4.23,0,0,1,.47,2.88c-.12.3-.2.22-.48.23-.71,0-1.14.59-1.58,1.07a6.76,6.76,0,0,0-.67-1.1,8.34,8.34,0,0,0-.82-1c-.24-.26-.69-.52-.83-.84A.71.71,0,0,1,197.87,35Z" transform="translate(-11.63 -8.55)"/><path class="cls-2" d="M205.41,36.45c.19-.2.51-.54.82-.49s.57.62.67,1c.16.58.35,1.16.47,1.75a6.42,6.42,0,0,1-.15,3.45c.06-.16-.31-.82-.39-1-.22-.47-.57-1.16-1.13-1.31a.91.91,0,0,0-.92.43c.1-.12-.3-.56-.36-.65-.56-.83.05-1.91.55-2.63A5.89,5.89,0,0,1,205.41,36.45Z" transform="translate(-11.63 -8.55)"/><path class="cls-2" d="M198.26,36.16a11.92,11.92,0,0,1,.94,1.1c.29.37.81,1.09.65,1.6a6.32,6.32,0,0,1-.45.85,6.93,6.93,0,0,0-.37,1c-.38-.42-.91-1.09-1.55-1-.82.08-.89,1-1.3,1.53a4,4,0,0,0-.19-.68,4.09,4.09,0,0,1,0-1.21,8.15,8.15,0,0,1,.8-2.58c.22-.42.52-1.29,1.1-.89A2.64,2.64,0,0,1,198.26,36.16Z" transform="translate(-11.63 -8.55)"/><path class="cls-2" d="M196,45.2a2.17,2.17,0,0,1-.44-1.3,5.25,5.25,0,0,1,.61-1.77c.17-.37.35-.74.54-1.1s.38-1,.86-1a1.6,1.6,0,0,1,.85.45,2.67,2.67,0,0,1,.38.37c.16.23.09.36.06.64a14.88,14.88,0,0,0,.09,2.29,1.58,1.58,0,0,0-1,.5A9.32,9.32,0,0,0,196.8,46,5.7,5.7,0,0,1,196,45.2Z" transform="translate(-11.63 -8.55)"/><path class="cls-2" d="M207.51,45.32a9.92,9.92,0,0,1-.46,3.34c0,.11-.07.21-.11.3a5.35,5.35,0,0,0-.92.18c.28-.08-.26-3-.42-3.35a1,1,0,0,0-.88-.67,6,6,0,0,0,.24-4.44h0c.18-.24.44-.6.8-.41s.69.94.88,1.36a9.05,9.05,0,0,1,.59,1.68A9.72,9.72,0,0,1,207.51,45.32Z" transform="translate(-11.63 -8.55)"/><path class="cls-2" d="M202.91,38.34l.37.46a6.7,6.7,0,0,1,1.54,3.44,5.58,5.58,0,0,1-.15,1.91,2.34,2.34,0,0,1-.37.89c-.24.31-.56.32-.87.51a3.16,3.16,0,0,0-.68.58c-.11.12-.43.55-.62.45a.36.36,0,0,1-.14-.18,5.38,5.38,0,0,0-.93-1.47,3.54,3.54,0,0,0-1.68-1,6.33,6.33,0,0,1,1.2-5.42c.43-.54,1.21-1.18,1.87-.65A3.59,3.59,0,0,1,202.91,38.34Z" transform="translate(-11.63 -8.55)"/><path class="cls-2" d="M203.54,50.56a4.16,4.16,0,0,0-1.07-1.71,3.17,3.17,0,0,1,0-.7c0-.29-.21-.76-.09-1a2.17,2.17,0,0,1,.46-.55,3.45,3.45,0,0,1,1.35-.9c.35-.12.73-.24,1,.1a2.19,2.19,0,0,1,.25,1,15.63,15.63,0,0,1,.23,2.46c0,.09-.74.39-.83.44a4.14,4.14,0,0,0-1,.89l-.17.23C203.59,50.73,203.56,50.65,203.54,50.56Z" transform="translate(-11.63 -8.55)"/><path class="cls-2" d="M196.65,47.54a5.3,5.3,0,0,1,.65-1.62,13,13,0,0,1,1.19-1.62l0,0c.11-.14.8.05.94.1a3.49,3.49,0,0,1,2,1.69,4.83,4.83,0,0,1,.46,1.27c0,.25,0,1.07.19,1.22a1.93,1.93,0,0,0-.74-.38c-.43-.07-.71.57-.91.85,0,.21-.53.74-.67.92a5.51,5.51,0,0,1-.56.88,7.44,7.44,0,0,0-1.1-.84,5.68,5.68,0,0,0-.79-.37,5.08,5.08,0,0,1-.66-.23A3.78,3.78,0,0,1,196.65,47.54Z" transform="translate(-11.63 -8.55)"/><path class="cls-2" d="M207,52.1a.21.21,0,0,0,0,.06c-.27.32-.77.23-1.14.28a2.38,2.38,0,0,0-1.29.58c.2-.17-.55-1.2-.65-1.36-.22-.36.05-.61.31-.9a4.16,4.16,0,0,1,1.05-.87,7.42,7.42,0,0,1,2-.57v.07c0,.51,0,1-.05,1.54A2.73,2.73,0,0,1,207,52.1Z" transform="translate(-11.63 -8.55)"/><path class="cls-2" d="M202.36,50.13c-.46-.11-.92.72-1.13,1a3.92,3.92,0,0,0-.82,2.12l0,0c-.11-.11-.14-.67-.2-.83a3.86,3.86,0,0,0-.32-.72,3.87,3.87,0,0,1-.36-.54,4.41,4.41,0,0,1,.41-.81c.19-.29.42-.57.63-.84a8.58,8.58,0,0,0,.53-.7c.21-.29.25-.28.57-.1a3.5,3.5,0,0,1,1.52,2c0,.13.08.27.11.4l-.66-.77A.48.48,0,0,0,202.36,50.13Z" transform="translate(-11.63 -8.55)"/><path class="cls-2" d="M199.32,52.43c-.5-.21-1.16-.45-1.28-.48a4.48,4.48,0,0,0-2.06,0,6.67,6.67,0,0,1-.31-2.39,17.28,17.28,0,0,1,1.93.61A5.12,5.12,0,0,1,199,51.19c.34.36.92,1,.84,1.52A1.68,1.68,0,0,0,199.32,52.43Z" transform="translate(-11.63 -8.55)"/><path class="cls-2" d="M200.94,52.57a3.55,3.55,0,0,1,1.34-2,5.21,5.21,0,0,1,1.84,4.92c.3-.61.19-1.37.56-1.94a2.18,2.18,0,0,1,1.57-.82c.33,0,.66,0,1-.07.17,0,1-.07,1.09-.25a3.86,3.86,0,0,1-1.53,1.9,11.47,11.47,0,0,1-2.22,1.1,4.4,4.4,0,0,1-1,.32,2.21,2.21,0,0,1-1.23-.26l-.6-.26a3.58,3.58,0,0,0-.48-.09,3.6,3.6,0,0,1-.35-2.47Z" transform="translate(-11.63 -8.55)"/><path class="cls-2" d="M195.93,52.32a4.54,4.54,0,0,1,1.37-.14,4.37,4.37,0,0,1,2.9,1.45,15.72,15.72,0,0,0,1,1.46h0a6.4,6.4,0,0,1-2,.08,5.34,5.34,0,0,1-1.88-.93c-.36-.24-.69-.49-1.05-.73-.12-.08-1.13-.56-1.12-.61C195.19,52.62,195.53,52.43,195.93,52.32Z" transform="translate(-11.63 -8.55)"/><path class="cls-2" d="M161.3,77.37a1.72,1.72,0,0,0,.85-.23,13.66,13.66,0,0,0,2-1,25.12,25.12,0,0,0,3-2.11,11.81,11.81,0,0,0,11.82,4.43,17.94,17.94,0,0,0,8.7-4.93.8.8,0,0,0,.47,0c1-.18,2.06-.61,3.1-.85a16.57,16.57,0,0,1,5.7-.4c7.25.76,13.07,5.77,19.88,7.91a18.87,18.87,0,0,0,9.48.75,5.89,5.89,0,0,0,3-1.27c.85-.83-2,0-2.19.07-4.07,1.2-8.62,0-12.35-1.74-4.65-2.1-8.91-5.13-13.8-6.66-3.32-1-7.78-1.73-11.1-.1l.51-.61c3.18-3.9,5.72-8.33,9.46-11.76,3.38-3.11,8.4-5.4,13-3.69a8.71,8.71,0,0,1,4.55,3.94c-3.22.4-6.42,1.5-8.19,4.26a6.18,6.18,0,0,0-.16,6.57,4.57,4.57,0,0,0,5.7,1.78c4.41-1.75,5.95-7.51,4.48-11.71,4.21-.25,8.43.52,12.64.13a17.14,17.14,0,0,0,6.42-1.81c1.81-1,3.76-2.58,4.35-4.64.12-.45,0-.41-.24-.07a11.56,11.56,0,0,1-2,2.33,13.84,13.84,0,0,1-6.44,2.9c-4,.75-8.08.14-12.14.07-.94,0-2,0-3,.06a10.52,10.52,0,0,0-11.37-5.52c-4.92.82-8.77,4.17-11.84,7.91s-5.71,8.25-9.44,11.61c-3.43,3.08-8.28,5.24-12.88,3.62A10.26,10.26,0,0,1,168.46,73l1-.91a31.36,31.36,0,0,0,8.85-25.27,5.83,5.83,0,0,0-.91-3.13,2.69,2.69,0,0,0-3-.84c-2,.63-3.89,2.53-5.23,4.12a23.7,23.7,0,0,0-5.23,12.54c-.55,4.62,0,9.46,2.54,13.42A41.44,41.44,0,0,1,163,75.83C162.89,75.92,161.14,77.33,161.3,77.37Zm56.58-17.24a8.87,8.87,0,0,1,.14,6.3,6.79,6.79,0,0,1-4.08,4.33c-2.25.69-4.11-.87-4.54-3.06C208.46,62.86,214,60.62,217.88,60.13ZM167.63,71.7a17.09,17.09,0,0,1-2.07-6.29,23.42,23.42,0,0,1,2.49-13.68,18.37,18.37,0,0,1,4.17-5.38,8.07,8.07,0,0,1,2.69-1.79c1.2-.35,1.4,1,1.49,1.92A31,31,0,0,1,175,59.31a33.75,33.75,0,0,1-7.21,12.19Z" transform="translate(-11.63 -8.55)"/><path class="cls-2" d="M234.75,94.13a13.66,13.66,0,0,1-5.25-1.36,9.74,9.74,0,0,1-3.65-3c-1,.25-1.62,1.12-1.36,1.86A3.07,3.07,0,0,1,222,89a11.92,11.92,0,0,1,.41-3.39,4.06,4.06,0,0,0-.59-3.29,7.6,7.6,0,0,1-.61-1.89,2.33,2.33,0,0,1,0-.86,8.5,8.5,0,0,1,.57-1.91,4.3,4.3,0,0,0,.47-3.31,12.89,12.89,0,0,1-.4-3.37,3,3,0,0,1,1.81-2.68A1.53,1.53,0,0,0,224.83,70a11.65,11.65,0,0,1,2.32-3.44,11.48,11.48,0,0,1,3.29-2.37,4.33,4.33,0,0,0,.11,2c1-.47,2-1,2.91-1.52s1.87-1.09,2.76-1.67c-.93,1.4-.91,3.27-1,5s-.44,3.7-2,4.68c.85-.33,1.7-.65,2.52-1a3.8,3.8,0,0,1-.54,1.61,3.86,3.86,0,0,1-1.27,1.24,8.43,8.43,0,0,1-1.08.55,9.13,9.13,0,0,0-1.09.53c-.68.41-1.29,1.12-1.14,1.83a1.54,1.54,0,0,0,1.4,1.06,3,3,0,0,0,1.91-.52c2-1.3,2-3.79,3.11-5.61a5.88,5.88,0,0,1,1.88-1.9,6,6,0,0,1,2.51-.94l.35,2.3a4,4,0,0,0,3-.71,7.46,7.46,0,0,1,3-1.19,6.58,6.58,0,0,1,2.34.49,8,8,0,0,0,1.51.29,8.81,8.81,0,0,0,1.54,0c.51,0,1-.09,1.56-.17s1-.22,1.59-.34a1.21,1.21,0,0,1,1.33.47h0a1.15,1.15,0,0,1-.24,1.4c-.79.84-1.6,1.6-2.32,2.42a13.9,13.9,0,0,0-1.91,2.67,6.92,6.92,0,0,1-1.54,2.16A8.15,8.15,0,0,1,248,80.61a6.08,6.08,0,0,0-3.29,1.31l1,2.09a7.89,7.89,0,0,1-3.23.67,6.5,6.5,0,0,1-3-.75c-2-1.16-3-3.4-5.35-4a3.32,3.32,0,0,0-2,.07,1.62,1.62,0,0,0-1.12,1.39c0,.73.82,1.26,1.67,1.45a9.39,9.39,0,0,0,1.31.19c.45,0,.9.06,1.33.14a5,5,0,0,1,1.81.7,3.62,3.62,0,0,1,1.26,1.23c-1.06,0-2.13,0-3.2,0,2.11.36,3.37,2,4.27,3.5s1.78,3.25,3.86,3.91c-1.55,0-3.09,0-4.62,0s-3-.15-4.55-.3A3,3,0,0,0,234.75,94.13ZM246.94,77a5,5,0,0,0,4.18,0,3.87,3.87,0,0,0-2-.52,4.18,4.18,0,0,0-1.11.15A4.3,4.3,0,0,0,246.94,77Zm-7.81,1.81a2.65,2.65,0,0,0,1.5,1.51A8.87,8.87,0,0,0,243,81a3.48,3.48,0,0,0-1.52-1.54A4.91,4.91,0,0,0,239.13,78.81Zm8.81-7.48a3.58,3.58,0,0,0-1.48,1,3.09,3.09,0,0,0-.83,1.48A4.58,4.58,0,0,0,247.94,71.33ZM238.2,76a3,3,0,0,0,1.74-1.48,5.09,5.09,0,0,0,.46-2.12c-.26.26-.52.52-.77.79a8.19,8.19,0,0,0-.72.84A3.35,3.35,0,0,0,238.2,76Zm-9.55-4.14a6.27,6.27,0,0,0,.46-4.63A7.58,7.58,0,0,0,228.65,71.86Zm-2.28,2.63a3.71,3.71,0,0,0-.61-1.73,4.06,4.06,0,0,0-1.35-1.32A5.08,5.08,0,0,0,226.37,74.49Zm-2,3.05a11.15,11.15,0,0,0,1.56-.41,8.72,8.72,0,0,0,1.44-.7,7.75,7.75,0,0,0,2.27-2,18,18,0,0,0,2-4c.14-.34.29-.68.46-1s.33-.67.52-1a7,7,0,0,1,1.4-1.67c-1.88,1.39-3.06,3.53-4.4,5.61a20.11,20.11,0,0,1-2.2,3A11,11,0,0,1,226,76.58,8.68,8.68,0,0,1,224.37,77.54Zm28.48-4.41A75.92,75.92,0,0,0,236.76,78,31.07,31.07,0,0,0,252.85,73.13Zm-26.12,15a2.59,2.59,0,0,0,1.07-2.57c-.2-.91-.46-1.21-1.5-1.57A4.73,4.73,0,0,1,226.73,88.16Zm5.41,3.11a2.37,2.37,0,0,0,0-2.76,4.48,4.48,0,0,0-1.7-1.64A38.09,38.09,0,0,1,232.14,91.27Zm6.4-.14a15,15,0,0,1-4.76-3.68c-.66-.71-1.31-1.42-2-2.1a16.42,16.42,0,0,0-2.21-1.94A12,12,0,0,0,226.86,82a8.65,8.65,0,0,0-3.12-.54,8.66,8.66,0,0,1,2.18.68,12.6,12.6,0,0,1,1.93,1.09,25.05,25.05,0,0,1,3.33,2.88C233.2,88.1,235.26,90.29,238.54,91.13Z" transform="translate(-11.63 -8.55)"/><path class="cls-4" d="M179.13,71.88a6.41,6.41,0,0,1-2.27-.4,6.61,6.61,0,0,1-1.56-.87,13.15,13.15,0,0,0-2.67-1.84.82.82,0,0,1-.22,0,.48.48,0,0,1-.44-.38.4.4,0,0,1-.11-.56.88.88,0,0,1,.18-.21,6.69,6.69,0,0,1,2.55-3.31,9.92,9.92,0,0,1,4-1.61c-.28.39.2.93.66,1a2,2,0,0,0,1.24-.53,7.31,7.31,0,0,1,3.32-1.58c1-.13,2.18.15,3.35-.05A5.21,5.21,0,0,0,190.67,59c.17-.3.51-.66.7-.52s.17.54,0,.89a44.16,44.16,0,0,0-1.55,4.68,9.1,9.1,0,0,1-1.62,4.1A6.74,6.74,0,0,1,185.61,70a8.89,8.89,0,0,1-1.62.48,10,10,0,0,1-1.62.17,12,12,0,0,0-2.32.1,1.79,1.79,0,0,0-.92.48A.38.38,0,0,0,179.13,71.88Zm-1.6-5.38a4.44,4.44,0,0,0,2.17-.66,3.59,3.59,0,0,0,.78-.66,2.81,2.81,0,0,0,.51-.82,13.51,13.51,0,0,0-1.77.92A10.5,10.5,0,0,0,177.53,66.5Zm.67,1.32c.37,0,.74-.08,1.1-.14s.73-.16,1.09-.26a15.72,15.72,0,0,0,2.05-.77,22.48,22.48,0,0,0,7.26-5.25c-.36.35-.76.67-1.14,1s-.8.61-1.22.88a20.07,20.07,0,0,1-2.57,1.48,37,37,0,0,1-5.4,2.14,13.18,13.18,0,0,1-2.69.5c-.92.1-1.85.15-2.75.3.69.07,1.37.13,2.09.16A17.73,17.73,0,0,0,178.2,67.82Zm9.13-.25L186,67.46a12.83,12.83,0,0,0-1.39,0,8.71,8.71,0,0,0-2.92.47A7,7,0,0,0,187.33,67.57Z" transform="translate(-11.63 -8.55)"/><path class="cls-4" d="M191,79.23a14.56,14.56,0,0,1-2.78-1.81c-.44-.34-.9-.67-1.39-1a8.37,8.37,0,0,0-1.62-.78,1.15,1.15,0,0,1-.26,0,.43.43,0,0,1-.45-.37.39.39,0,0,1-.07-.58,1.08,1.08,0,0,1,.21-.22,7,7,0,0,1,1.14-1.84,6.84,6.84,0,0,1,2-1.56,8.37,8.37,0,0,1,6.23-.58c-.66.19,0,.95.77,1.37a6.71,6.71,0,0,0,1.21.5c.4.14.82.25,1.22.37a10.5,10.5,0,0,1,5.35,3.72c.9,1.35,1,2.67,1.57,4a7.72,7.72,0,0,0,1.31,2.1,8.36,8.36,0,0,0,.95.93,8.26,8.26,0,0,0,1.13.76c.36.19.8.55.66.74s-.6.16-1,0a30,30,0,0,0-5.28-1.58,19.74,19.74,0,0,1-4.35-.76,11.85,11.85,0,0,1-4.2-3.15,7,7,0,0,0-.61-.61,1.94,1.94,0,0,0-.73-.4C191.45,78.37,190.9,78.79,191,79.23Zm.17-5.58a19.87,19.87,0,0,0,5.58.41,8.91,8.91,0,0,0-1.46-.55,9.14,9.14,0,0,0-1.49-.26A5.58,5.58,0,0,0,191.21,73.65Zm.42,1.48a18.49,18.49,0,0,1,4.66,1.68,27,27,0,0,1,4.38,3c1.37,1.11,2.69,2.28,4.08,3.37-1.78-1.56-3.35-3.35-5.18-4.94a20.24,20.24,0,0,0-2.95-2.15,11.76,11.76,0,0,0-3.38-1.32,18,18,0,0,0-6.42-.26A29.47,29.47,0,0,1,191.63,75.13Zm6.23,6.51a8.74,8.74,0,0,0-.9-2.53A5,5,0,0,0,194.77,77,16.48,16.48,0,0,0,197.86,81.64Z" transform="translate(-11.63 -8.55)"/><path class="cls-2" d="M237.55,64.14a7.42,7.42,0,0,1-1.38.25,6.62,6.62,0,0,1-1.34-.06,6.41,6.41,0,0,1-2.36-.81,9,9,0,0,1-3-3.06.55.55,0,0,1-.21-.12.61.61,0,0,1-.13-.68.69.69,0,0,1,.23-.67.78.78,0,0,1,.2-.11c.2-.27.39-.54.56-.81s.35-.53.52-.81l1-1.57a15,15,0,0,1,1-1.38,5.1,5.1,0,0,1,.5-.53,2.17,2.17,0,0,1,.54-.39,1,1,0,0,0,.28.72.73.73,0,0,0,.63.26.82.82,0,0,0,.51-.3,3.55,3.55,0,0,0,.35-.54,3.43,3.43,0,0,1,2.35-2,10.6,10.6,0,0,1,1.65-.1l.91,0a5.4,5.4,0,0,0,.91-.14,4.43,4.43,0,0,0,3.08-2.67c.12-.3.42-.67.69-.56s.37.49.31.83a19.53,19.53,0,0,0-.09,4.78c0,.36.11.74.14,1.1s.08.74.1,1.12a5.53,5.53,0,0,1-.34,2.34,3,3,0,0,1-.34.7,6.86,6.86,0,0,1-.46.64,5.72,5.72,0,0,1-1.18,1.12c-.23.17-.45.32-.69.47s-.49.25-.74.36a7.55,7.55,0,0,1-1.52.51c-.37.08-.75.14-1.1.24a3.43,3.43,0,0,0-1,.39,1.66,1.66,0,0,0-.68.8A.53.53,0,0,0,237.55,64.14Zm-3.44-6a4,4,0,0,0,.92-.52,1.85,1.85,0,0,0,.38-.36,3,3,0,0,0,.32-.41,2.82,2.82,0,0,0,.26-.44,4.24,4.24,0,0,0,.18-.5,3.59,3.59,0,0,0,.12-1A9,9,0,0,0,234.11,58.13Zm1,1.42.48-.21a2.88,2.88,0,0,0,.46-.24l.89-.54c.28-.2.55-.42.82-.63l.4-.31.38-.35.39-.35.2-.17.18-.19.75-.73c.46-.52,1-1,1.38-1.55a26.59,26.59,0,0,0,2.46-3.36,24.13,24.13,0,0,1-3.89,3.93c-1.38,1.14-2.76,2.16-4.19,3.32a7.37,7.37,0,0,1-4.79,1.58,4.5,4.5,0,0,0,.48.16,3.06,3.06,0,0,0,.51.1,9,9,0,0,0,1,0,6.26,6.26,0,0,0,1-.17,4.23,4.23,0,0,0,.51-.13Zm8.71-1.92c-.49,0-1,0-1.45,0l-.71.06c-.24,0-.48,0-.71.08a8.61,8.61,0,0,0-1.39.36,5,5,0,0,0-1.24.67A4.83,4.83,0,0,0,239,59a4.91,4.91,0,0,0,.67,0,5.67,5.67,0,0,0,.71,0,4.2,4.2,0,0,0,.71-.11,7.87,7.87,0,0,0,1.42-.47A10.28,10.28,0,0,0,243.86,57.63Z" transform="translate(-11.63 -8.55)"/><path class="cls-2" d="M185,51.1a3.37,3.37,0,0,1-1.09.84,9.88,9.88,0,0,1-1.54.58c-1.1.34-2.34.59-3.57,1a.54.54,0,0,1-.15.15.72.72,0,0,1-.7,0,.69.69,0,0,1-.63-.29.55.55,0,0,1-.06-.22,9.62,9.62,0,0,1-2.29-3.32,5.85,5.85,0,0,1-.4-2.17,5.45,5.45,0,0,1,.49-2.26c.23.57,1.09.41,1.51-.05a2.6,2.6,0,0,0,.44-.82c.11-.3.19-.61.27-.92a6.66,6.66,0,0,1,.5-1.25,6.08,6.08,0,0,1,.34-.6,5.12,5.12,0,0,1,.41-.54,4.5,4.5,0,0,1,1-.93,4.19,4.19,0,0,1,1.17-.6,5.17,5.17,0,0,1,2.1-.15c.69.07,1.36.2,2,.3a11.16,11.16,0,0,0,4.26-.26c.3-.08.74-.05.79.24s-.14.58-.39.72a4.36,4.36,0,0,0-2.08,3.16,10.57,10.57,0,0,0,0,1.78,7.21,7.21,0,0,1-.06,1.63,3.16,3.16,0,0,1-2.17,2.23,4.35,4.35,0,0,0-.58.27.87.87,0,0,0-.37.46C184,50.43,184.44,51.05,185,51.1Zm-6.43-2.38a6.5,6.5,0,0,0,.15-4.34A4.89,4.89,0,0,0,178.52,48.72Zm1.73.31c.22-.54.45-1.08.67-1.63.11-.27.24-.54.36-.81a8.62,8.62,0,0,1,.41-.8,11.58,11.58,0,0,1,1.06-1.56,10.6,10.6,0,0,1,1.33-1.35A10.48,10.48,0,0,1,187.32,41a12.11,12.11,0,0,0-4.67,2.34,8.21,8.21,0,0,0-2.82,4.34A29.35,29.35,0,0,1,178.42,52a7.14,7.14,0,0,0,1.05-1.42,8.09,8.09,0,0,0,.42-.76Zm6-2.73A5.43,5.43,0,0,0,184,46a2.36,2.36,0,0,0-1,.37,1.77,1.77,0,0,0-.73.78A9.57,9.57,0,0,0,186.23,46.3Z" transform="translate(-11.63 -8.55)"/><path class="cls-3" d="M163.05,14h.07a1.3,1.3,0,0,1,.91.58,7.93,7.93,0,0,1,1.1,1.77c.18-.27.36-.53.55-.78a10.1,10.1,0,0,0-2-5,3.88,3.88,0,0,0-1.47,1.11l.44,1.2C162.81,13.23,162.94,13.62,163.05,14Z" transform="translate(-11.63 -8.55)"/><path class="cls-1" d="M159.35,17.58c.12.16.24.33.35.5a8.19,8.19,0,0,1,.48-1,12,12,0,0,1,2.08-2.58,3.07,3.07,0,0,1,.34-.29c.37-.26-.51-1.78-.64-2.06a12.67,12.67,0,0,0-1.72-3.07c-.34-.37-.63-.54-.89-.51s-.71.6-1,1.18a14.54,14.54,0,0,0-1.27,3.35,10.62,10.62,0,0,1,1.6,2.39A5.94,5.94,0,0,1,159.35,17.58Z" transform="translate(-11.63 -8.55)"/><path class="cls-3" d="M155.68,19.14c-.07-.14.14-.66.18-.82s.18-.62.28-.93a10,10,0,0,1,.65-1.67,6.09,6.09,0,0,1,1,.48c.2.12.85.47.92.71a6.45,6.45,0,0,0-.48-1.23,10,10,0,0,0-2.62-3.33,12.22,12.22,0,0,0-1.66,3,6.22,6.22,0,0,0-.28,1.32,2,2,0,0,1,.28.2A7,7,0,0,1,155.68,19.14Z" transform="translate(-11.63 -8.55)"/><path class="cls-2" d="M153,24c-.1-.11.16-.91.2-1.06.1-.42.22-.84.35-1.25.27-.81.69-2.48,1.88-2.05a7.84,7.84,0,0,0-.89-1.57c-.18-.23-.94-1.2-1.3-1a1.07,1.07,0,0,0-.28.36,9.81,9.81,0,0,0-1.39,3.84,6,6,0,0,0,0,1.34A12.08,12.08,0,0,1,153,24Z" transform="translate(-11.63 -8.55)"/><path class="cls-2" d="M150.35,27.81s1.35.41,1.51.49a6.7,6.7,0,0,1,1.35,1c.09-.28.15-.58.24-.87s-.3-.8-.37-1a8,8,0,0,1-.2-2.75c0-.19-.62-.7-.77-.85a6.91,6.91,0,0,0-1.14-1,5.91,5.91,0,0,0-.88,3.58A6,6,0,0,0,150.35,27.81Z" transform="translate(-11.63 -8.55)"/><path class="cls-3" d="M165.53,17.9c.1.46.2.93.33,1.38a2.47,2.47,0,0,1,1.36,1.55c.07.16.12.34.2.49.19.37.47.12.69-.14.6-.69.28-1.72.12-2.52a9.36,9.36,0,0,0-.54-1.78c-.14-.34-.53-1.55-.94-1.63s-1,.75-1.14,1.08a2.35,2.35,0,0,0-.08,1.55Z" transform="translate(-11.63 -8.55)"/><path class="cls-2" d="M167.89,22.22a2.43,2.43,0,0,0,.11,1.46,6.05,6.05,0,0,1,.16,2.12,7.14,7.14,0,0,1-.32,1.58l.16.33a9,9,0,0,1,2.34-2,6.32,6.32,0,0,0,.11-.76,7.55,7.55,0,0,0-1.13-4.39c0,.07-.71.68-.77.74A2.45,2.45,0,0,0,167.89,22.22Z" transform="translate(-11.63 -8.55)"/><path class="cls-2" d="M171.08,29.11a19,19,0,0,0-.48-2.5c0-.14-.07-.28-.11-.41h0l-.31.2a8.39,8.39,0,0,0-1.92,1.77c0,.06.4,1,.42,1.13a3.57,3.57,0,0,1-1,3.19c-.14.14-.57.34-.64.5s.16.57.22.78a5.34,5.34,0,0,1,.66-.59,10.55,10.55,0,0,1,1.85-1.11c.21-.11.5-.35.72-.2a1.89,1.89,0,0,1,.26.54c.05,0,.05-.07.07-.12A7.19,7.19,0,0,0,171.08,29.11Z" transform="translate(-11.63 -8.55)"/><path class="cls-2" d="M170.36,33.54c-.09-.45-.23-1.14-.22-1.14a10.73,10.73,0,0,0-2,1.17,5.32,5.32,0,0,0-.81.76,5.93,5.93,0,0,1,.16,1.12c0,.07-.09,1.18-.06,1.18.23,0,.46-.09.69-.14s.33-.15.43.12a2.91,2.91,0,0,1,0,1.28c0,.28,0,1.26-.19,1.43A6.1,6.1,0,0,0,170.36,33.54Z" transform="translate(-11.63 -8.55)"/><path class="cls-2" d="M159.39,18.68a1.26,1.26,0,0,0-.22-.6,6.21,6.21,0,0,0-2.12-1.75l-.24.61a15,15,0,0,0-.55,1.68c-.12.5-.38,1.26,0,1.68A7.73,7.73,0,0,1,158,23.24c0,.11.07.22.1.33l.21-.26.46-.57a4,4,0,0,1,.77-.77s-.24-1.51-.23-1.66A10.13,10.13,0,0,0,159.39,18.68Z" transform="translate(-11.63 -8.55)"/><path class="cls-2" d="M153,33.51c-.15,0,0-1.65,0-1.77,0-.41.05-.81.09-1.21s.1-.61-.24-1A4.74,4.74,0,0,0,151,28.46a2.32,2.32,0,0,0-1-.22c-.23.08-.32.76-.38,1a9,9,0,0,0,.22,4.84,6.32,6.32,0,0,0,.26.63A4.54,4.54,0,0,1,153,33.51Z" transform="translate(-11.63 -8.55)"/><path class="cls-2" d="M153.27,36.47c0-.08,0-.16,0-.23s.17,0,.23,0A19,19,0,0,1,153,34c0-.25-1.88.55-2,.65-.53.34-1.19.86-1.05,1.58a5.17,5.17,0,0,0,1.38,2.16,5.69,5.69,0,0,0,2.2,1.65c-.2-.08-.2-1.64-.21-1.86A9.64,9.64,0,0,1,153.27,36.47Z" transform="translate(-11.63 -8.55)"/><path class="cls-3" d="M165.38,18.88a4.83,4.83,0,0,0-.29-1.22,7.42,7.42,0,0,0-.71-1.73c-.23-.4-.62-1.24-1.12-1.34s-1.23.78-1.56,1.18a9.39,9.39,0,0,0-1.28,2c-.46,1-1,2.55-.59,3.6.15.37.25.28.6.29.88,0,1.42.73,2,1.33a8.24,8.24,0,0,1,.84-1.38,10.51,10.51,0,0,1,1-1.29c.3-.32.85-.64,1-1A1,1,0,0,0,165.38,18.88Z" transform="translate(-11.63 -8.55)"/><path class="cls-2" d="M156,20.68c-.24-.25-.64-.68-1-.62s-.71.79-.83,1.21c-.2.73-.44,1.45-.59,2.19a8.05,8.05,0,0,0,.19,4.3c-.08-.2.39-1,.48-1.22.29-.59.72-1.45,1.42-1.63.49-.13.85.19,1.15.54-.13-.15.36-.7.45-.82.69-1-.07-2.38-.7-3.28A5.23,5.23,0,0,0,156,20.68Z" transform="translate(-11.63 -8.55)"/><path class="cls-2" d="M164.9,20.32a12.09,12.09,0,0,0-1.17,1.36c-.37.48-1,1.37-.82,2a9,9,0,0,0,.56,1.06,7.68,7.68,0,0,1,.46,1.24c.48-.53,1.14-1.36,1.93-1.28,1,.1,1.12,1.28,1.62,1.91a6.62,6.62,0,0,1,.24-.84,4.78,4.78,0,0,0,0-1.51,9.55,9.55,0,0,0-1-3.21c-.26-.53-.63-1.61-1.36-1.12A2.93,2.93,0,0,0,164.9,20.32Z" transform="translate(-11.63 -8.55)"/><path class="cls-2" d="M167.73,31.59a2.76,2.76,0,0,0,.54-1.62,6.46,6.46,0,0,0-.76-2.21c-.21-.46-.43-.92-.68-1.37s-.46-1.25-1.07-1.18a2,2,0,0,0-1.06.56,2.86,2.86,0,0,0-.46.46c-.2.28-.12.45-.08.79a17,17,0,0,1-.12,2.86,2,2,0,0,1,1.25.62,12.23,12.23,0,0,1,1.43,2.11A7.49,7.49,0,0,0,167.73,31.59Z" transform="translate(-11.63 -8.55)"/><path class="cls-2" d="M153.35,31.74a12.53,12.53,0,0,0,.59,4.17c0,.13.09.25.13.37a6,6,0,0,1,1.15.22c-.35-.1.33-3.74.52-4.17a1.27,1.27,0,0,1,1.09-.83,7.59,7.59,0,0,1-.3-5.54h0c-.23-.3-.55-.74-1-.5s-.87,1.16-1.11,1.68a12.15,12.15,0,0,0-.73,2.1A11.77,11.77,0,0,0,153.35,31.74Z" transform="translate(-11.63 -8.55)"/><path class="cls-2" d="M159.09,23c-.15.2-.31.39-.46.57a8.48,8.48,0,0,0-1.92,4.28,6.86,6.86,0,0,0,.19,2.39,2.73,2.73,0,0,0,.46,1.11c.3.39.7.4,1.09.64a4.5,4.5,0,0,1,.85.72c.13.15.54.69.77.56a.46.46,0,0,0,.17-.22,6.69,6.69,0,0,1,1.17-1.84A4.45,4.45,0,0,1,163.5,30a7.89,7.89,0,0,0-1.5-6.75c-.53-.68-1.51-1.47-2.33-.81A3.73,3.73,0,0,0,159.09,23Z" transform="translate(-11.63 -8.55)"/><path class="cls-2" d="M158.31,38.27a5.22,5.22,0,0,1,1.33-2.13,3.53,3.53,0,0,0,0-.87c0-.37.26-.94.12-1.29a2.73,2.73,0,0,0-.58-.69,4.34,4.34,0,0,0-1.68-1.13c-.43-.15-.92-.3-1.23.13a2.87,2.87,0,0,0-.32,1.3,19.7,19.7,0,0,0-.29,3.07c0,.1.93.47,1,.54A5,5,0,0,1,158,38.31l.21.29Z" transform="translate(-11.63 -8.55)"/><path class="cls-2" d="M166.91,34.51a7,7,0,0,0-.82-2,15.21,15.21,0,0,0-1.48-2l-.05,0c-.14-.18-1,.07-1.18.12a4.35,4.35,0,0,0-2.45,2.11,5.51,5.51,0,0,0-.58,1.59c-.06.31,0,1.33-.23,1.51a2.44,2.44,0,0,1,.92-.47c.54-.09.88.71,1.14,1.06,0,.26.66.92.82,1.15a8,8,0,0,0,.71,1.1,9.45,9.45,0,0,1,1.37-1.06,6.7,6.7,0,0,1,1-.45c.07,0,.82-.25.83-.29A4.88,4.88,0,0,0,166.91,34.51Z" transform="translate(-11.63 -8.55)"/><path class="cls-2" d="M154,40.19a.18.18,0,0,0,.05.07c.33.41.95.3,1.41.35a3.14,3.14,0,0,1,1.62.72c-.25-.21.68-1.48.8-1.68.28-.45-.06-.76-.38-1.13a4.74,4.74,0,0,0-1.32-1.08,8.75,8.75,0,0,0-2.45-.71v.08c0,.64,0,1.28,0,1.92A3.44,3.44,0,0,0,154,40.19Z" transform="translate(-11.63 -8.55)"/><path class="cls-2" d="M159.78,37.74c.57-.14,1.15.9,1.4,1.27a4.85,4.85,0,0,1,1,2.66l0,0c.13-.14.17-.84.24-1a6.07,6.07,0,0,1,.41-.9,5.8,5.8,0,0,0,.44-.66,4.57,4.57,0,0,0-.51-1c-.24-.37-.52-.72-.79-1.06s-.45-.57-.66-.86-.31-.36-.71-.13a4.35,4.35,0,0,0-1.89,2.44c-.05.17-.1.33-.14.5l.83-1A.64.64,0,0,1,159.78,37.74Z" transform="translate(-11.63 -8.55)"/><path class="cls-2" d="M163.58,40.6c.61-.25,1.44-.55,1.59-.59a5.45,5.45,0,0,1,2.57,0,8.41,8.41,0,0,0,.39-3,23.34,23.34,0,0,0-2.41.77,6.39,6.39,0,0,0-1.78,1.32c-.41.44-1.15,1.23-1,1.89C162.89,40.9,163.19,40.76,163.58,40.6Z" transform="translate(-11.63 -8.55)"/><path class="cls-2" d="M161.55,40.78a4.46,4.46,0,0,0-1.67-2.55,6.51,6.51,0,0,0-2.29,6.14c-.38-.76-.24-1.71-.7-2.42a2.69,2.69,0,0,0-1.95-1c-.42,0-.84,0-1.25-.09-.2,0-1.28-.08-1.36-.31a4.9,4.9,0,0,0,1.92,2.37A14.57,14.57,0,0,0,157,44.27a5.28,5.28,0,0,0,1.22.4,2.93,2.93,0,0,0,1.54-.32c.25-.11.49-.23.75-.33,0,0,.61-.13.6-.12a4.43,4.43,0,0,0,.43-3.07Z" transform="translate(-11.63 -8.55)"/><path class="cls-2" d="M167.8,40.47a5.4,5.4,0,0,0-1.71-.18,5.47,5.47,0,0,0-3.62,1.82,18,18,0,0,1-1.27,1.81h.05a7.79,7.79,0,0,0,2.5.1,6.67,6.67,0,0,0,2.34-1.16c.44-.29.87-.61,1.31-.9.15-.1,1.41-.71,1.4-.76C168.72,40.84,168.3,40.61,167.8,40.47Z" transform="translate(-11.63 -8.55)"/><path class="cls-2" d="M160,45a19.65,19.65,0,0,1-.33,6.88c-.72,3.15-2.21,6.42-1.15,9.47a36.53,36.53,0,0,0,3.2-10.16,18.89,18.89,0,0,0-1.33-10.46C159.5,41.93,159.81,43.57,160,45Z" transform="translate(-11.63 -8.55)"/><path d="M84.53,205.94c-.62-.34,0-2.19.51-2.19H99.73c.56,0,1.18,1.85.56,2.19-1,.73-2.31,2.2-2.31,3.32v16.15h15.25V209.26c0-1.12-1.29-2.59-2.31-3.32-.61-.34,0-2.19.51-2.19h14.74c.51,0,1.13,1.85.51,2.19-1,.73-2.31,2.2-2.31,3.32V251.8c0,1.13,1.3,2.59,2.31,3.33.62.33,0,2.19-.51,2.19H111.43c-.51,0-1.12-1.86-.51-2.19,1-.74,2.31-2.2,2.31-3.33V234.75H98V251.8c0,1.13,1.3,2.59,2.31,3.33.62.33,0,2.19-.56,2.19H85c-.51,0-1.13-1.86-.51-2.19,1-.74,2.31-2.2,2.31-3.33V209.26C86.84,208.14,85.49,206.67,84.53,205.94Z" transform="translate(-11.63 -8.55)"/><path d="M129.39,242.29V218.77c0-10,8-15.81,18.06-15.81s18.06,5.85,18.06,15.81v23.52c0,10-8,15.82-18.06,15.82S129.39,252.25,129.39,242.29Zm18.06,4.22c4.67,0,8.5-3,8.5-7.7V222.26c0-4.67-3.83-7.71-8.5-7.71s-8.5,3-8.5,7.71v16.55C139,243.48,142.78,246.51,147.45,246.51Z" transform="translate(-11.63 -8.55)"/><path d="M181.61,240.55V251.8c0,1.13,1.3,2.59,2.31,3.33.62.33,0,2.19-.56,2.19H168.67c-.51,0-1.13-1.86-.51-2.19,1-.74,2.31-2.2,2.31-3.33V209.26c0-1.12-1.35-2.59-2.31-3.32-.62-.34,0-2.19.51-2.19H187c10.63,0,18.68,7.09,18.68,17v2.53c0,10-8,17.28-18.68,17.28Zm6.08-10.8c4.67,0,6.87-3,6.87-7.71s-2.2-7.71-6.87-7.71h-6.08v15.42Z" transform="translate(-11.63 -8.55)"/><path d="M206.66,250.06l4.44-9.17,1.07-2.31c.23-.45,2.14-.22,2.2.51.22,1.18.67,3.49,1.69,4,4.1,2.42,7.26,3.37,10.41,3.37,5.06,0,6-1.8,6-4.33,0-3-3-4.61-12.32-9.9-7.43-4.22-10.36-8.27-10.36-14.75,0-8.1,5.86-14.8,16-14.8,5.85,0,10.47,1.24,16.21,4.22l-4.95,9.91L236,219.11c-.28.51-2.2.17-2.25-.51-.23-1.24-.9-3-2-3.43a15.12,15.12,0,0,0-5.29-.84c-3.77,0-5.74,1.74-5.74,3.71,0,2.25,2.36,3.71,9.34,7.82,9.45,5.57,12.38,9.74,12.38,17,0,8.39-5.74,15.2-16.66,15.2C218.76,258.11,213.24,255.8,206.66,250.06Z" transform="translate(-11.63 -8.55)"/><path d="M11.63,158.09a32.86,32.86,0,0,1,2.62-13.81A25.53,25.53,0,0,1,23.09,134c7.93-5.66,20.28-9,38.85-10.83,22.08-2.13,32.16-7,35.33-8.91,6.12-5.2,11.22-6.56,13.82-6.33,0,0,7.7.24,3.73,11.33a2.92,2.92,0,0,1-.34.56c-.46.91-2.16,2.94-5.9,3.39a.43.43,0,0,1-.33-.68c3.51-3.62,5.56-12.67,2.61-12.79-2.83.23-6.45,3.85-10,8.6,0,0-10.54,15.72,3,19.47a.89.89,0,0,1,.22.46,6.63,6.63,0,0,1-1.36,2,3.49,3.49,0,0,1-2.37,1c-3.74.22-17.33,1.79-21.76,15-5.45,16.18,1.56,24.57,10.17,24.24a22.43,22.43,0,0,0,9.06-2.94,43.54,43.54,0,0,0,10.54-8.48,73.46,73.46,0,0,0,9.86-13,1.11,1.11,0,1,1,1.92,1.13,74.83,74.83,0,0,1-10.09,13.47A47.64,47.64,0,0,1,99,179.58a24.83,24.83,0,0,1-9.18,3.16,18,18,0,0,1-3.39.11c-14.61-.24-21.84-12.48-15.6-29.12,5.68-15.16,23.23-16.84,23.23-16.84-5.32-4.88-4.63-10.42-2.7-14.72-4.08,1-11.78,2.25-25.71,3.14-2.49.11-5.77.34-9.74.78a125.47,125.47,0,0,0-16.64,3.16,47,47,0,0,0-14.95,6.55C17.2,140.89,13.79,148,13.9,158.09c0,.12.1,8.95,5.53,13.71A11.62,11.62,0,0,0,23.05,174a8.72,8.72,0,0,0,3.29.46c5.54-.22,9.62-4.07,10.87-5.31.23-.23.57-.23.68.11a4.58,4.58,0,0,1-.34,4.87c-2.16,2.83-5.78,3.51-9.07,3.28a15.33,15.33,0,0,1-4.75-.8A14.32,14.32,0,0,1,18,173.5C11.74,168.05,11.63,158.54,11.63,158.09Zm60,6.06c0-.22-.11-.22-.11-.34s-.11,0-.11-.11a.58.58,0,0,1,0-.68l.11-.11v-.12a.43.43,0,0,0-.11-.34.11.11,0,0,0-.11-.11.11.11,0,0,0-.12.11c0,.12-.11.12-.11.23-.23.11-.23.11-.23.23v.45a.34.34,0,0,1-.11.22v1.14a.47.47,0,0,0,0,.56v.23c-.12.23,0,.23.11.34s.11.11.11.23h.23a.42.42,0,0,0,.23-.12c.11-.11,0-.22,0-.34v-.11l.11-.11v-.34a.37.37,0,0,1-.11-.23c0-.11,0-.11.11-.23a.11.11,0,0,0,.11-.11Zm-.22,2.61c0-.34,0-.34-.12-.46l-.11-.11h-.11c-.23,0-.23.45-.23.68v.45c.11.12.11.12.11.34,0,0,0,.68.11.68s.12,0,.12-.11.11-.34.11-.46A4.08,4.08,0,0,0,71.41,166.76Zm1.82-11.89h.23a.38.38,0,0,0,.22-.11c.23-.12.23-.23.12-.46v-.22c.11-.12.11-.12.11-.23s0-.22-.11-.34-.12,0-.12-.11h-.22v.11a.36.36,0,0,1-.12.23c-.11.11-.11.11-.11.34a.34.34,0,0,1-.11.22v.46Zm.55,17.44.11.11h.23c0-.11.11-.23-.23-1.13a1.58,1.58,0,0,1-.11-.57.11.11,0,0,1-.11-.11v-.34a4,4,0,0,1-.23-.68.43.43,0,0,0-.11-.23l-.12.12v1.24a9.21,9.21,0,0,0,.23,1C73.66,172.19,73.66,172.31,73.78,172.31Zm0-8.84a.4.4,0,0,0,.11-.33v-.91a1.75,1.75,0,0,0,.11-.68,1.18,1.18,0,0,0,.12-.57c0-.22,0-.33.11-.33v-.23l-.11-.11V160H74a.39.39,0,0,0-.23.11.69.69,0,0,0-.11.45.11.11,0,0,1-.12.11c0,.12,0,.23-.11.23v.23a.41.41,0,0,1,.11.34c0,.11-.11.11-.11.22s-.12.12-.12.12v.79a.11.11,0,0,0,.12.11v.79c-.12.12-.12.12-.12.23v.11a.83.83,0,0,0,.12.46h.11l.11-.12c0-.11,0-.22.12-.22v-.46Zm-.22-10.41v.11c0,.12.11.12.34.12h.23a.62.62,0,0,0,.22-.46v-.22a.12.12,0,0,1,.12-.12v-.22c.11,0,.11-.12.11-.23s.11-.23,0-.34,0-.11-.11-.11a.11.11,0,0,0-.12.11.11.11,0,0,0-.11.11.43.43,0,0,0-.11.23.11.11,0,0,0-.12.11l-.11.12H73.8c-.12.11-.12.11-.12.22s-.11.12-.11.23S73.46,153,73.57,153.06Zm3.15,23c-.12-.12-.12-.23-.23-.23s-.11-.23-.22-.34-.12-.23-.23-.34l-.23-.23v-.11a2.43,2.43,0,0,1-.45-.68c-.11-.23-.23-.45-.34-.68a.32.32,0,0,1-.22-.34l-.23-.23c-.11,0-.11,0-.11-.11s-.12-.11-.23-.11,0-.12-.11-.12-.12,0-.23.23v.11c0,.23.11.46.23.46v.11c.11,0,.11.11.11.23v.22c0,.11.11.23.23.34a.24.24,0,0,1,.22.23c.11.11.11.11.11.22a.39.39,0,0,0,.12.34l.22.46c.23.11.23.22.34.22h.23c0,.12.11.12.22.23s.23.11.23.23.11.22.23.34a.38.38,0,0,0,.11.22l.11.12c.12.11.23.34.46.34s.11,0,.11-.12,0-.11,0-.22-.11-.11-.11-.23-.12-.34-.23-.34S76.72,176.16,76.72,176.05Zm-1.91-13.48c-.12.23-.23.34-.23.57s0,.11.11.22h-.11l-.11.12c0,.11,0,.11.11.11h-.11c0,.11-.12.11-.12.11s.12.12.12.23h.11V164c-.11,0-.11,0-.12.12s-.11.11,0,.11.12.11.12.22h.11c.11,0,.11.12.11.12v.11l-.11.11c0,.12,0,.23.23.23H74.8c-.11.11-.22.11-.22.23a.11.11,0,0,1,.11.11v.11c0,.12.11.12.23.12h-.34v.11c0,.11,0,.11.11.23v.22l.11.12h.12c.11,0,.11,0,.11-.12v-.11h.11V166a.12.12,0,0,0,.12-.12v-.11a.11.11,0,0,0-.12-.11v-.12a.11.11,0,0,0,.12-.11c-.12,0-.12-.11,0-.11s0-.12-.12-.12v-.11h0V165c.12,0,.23-.11.12-.12v-.11c.11,0,.11-.11,0-.11v-.11c.11,0,.11-.12,0-.23V164c.11-.11,0-.22,0-.34v-.11a.11.11,0,0,1-.11-.11H75l-.11-.12a.25.25,0,0,0,.23-.22v-.34a.47.47,0,0,0-.12-.34h-.11A.11.11,0,0,1,74.81,162.57Zm-.23,4.3a.11.11,0,0,0,.11.12v.11h.11V167h.12s0-.12.11-.12l.11-.11v-.11h-.22c0-.12-.12-.12-.23-.12h-.11v.34Zm.58-16.3c0,.11,0,.11-.12.11a.39.39,0,0,0,.12.34h.11a.11.11,0,0,0,.11-.11.11.11,0,0,0,.12-.11c.11-.12.22-.23.22-.34a.12.12,0,0,1,.12-.12l.11-.22a.11.11,0,0,0-.11-.12s-.12-.11-.12,0-.11.12-.11.12h-.23l-.11.11H75a.11.11,0,0,0-.11.11S75,150.34,75.16,150.57Zm2.26,6.12a.87.87,0,0,0-.34-.23v-.11a.38.38,0,0,0-.12-.23h-.11a.11.11,0,0,0-.11.11v.23a.39.39,0,0,0-.12.34v.11a.17.17,0,0,0,0,.23c0,.11.12.11.12.11s.11,0,.11-.11V157H77l.12-.11a.11.11,0,0,1,.11-.11c.11,0,.11,0,.11-.11Zm.68-2.61c0-.11-.11-.22-.34-.23h-.23a.72.72,0,0,0-.11.46v.11l-.11.11v.23a.34.34,0,0,0-.12.23v.34l.11.11h.12l.11-.11v-.12c.11,0,.11-.22.11-.22l.12-.12a.11.11,0,0,0,.11-.11H78a.36.36,0,0,1,.12-.23v-.11A.22.22,0,0,0,78.1,154.08Zm.57-1.24c0-.12,0-.23-.23-.23h-.23A.32.32,0,0,0,78,153c0,.11,0,.11-.12.23a.34.34,0,0,1-.11.22c0,.12,0,.23.23.34l.11.12h.11v-.12a.11.11,0,0,1,.11-.11.34.34,0,0,0,.12-.23.38.38,0,0,1,.11-.22C78.67,153,78.67,153,78.67,152.84Zm.45-4.42v-.22c.23-.23.12-.34.12-.34h-.12a.38.38,0,0,0-.22.11c0,.11-.12.11-.12.23s-.22.33-.34.45a1.55,1.55,0,0,0-.22.34c0,.11,0,.11.11.11h.11c.12-.11.12-.11.12-.23a.15.15,0,0,0,.22,0c.12-.12.12-.12.23-.12a.11.11,0,0,0,.11-.11h.12C79.24,148.54,79.12,148.54,79.12,148.42Zm2.16-2.94a.37.37,0,0,0-.23-.11c-.23,0-.34.22-.45.45v.23h-.12c-.11.11-.11.11-.11.22l-.11.12c-.12.11-.12.22-.23.22v.11c-.11,0-.11.23-.11.34s0,.12,0,.12H80l.11-.12.12-.11c.11,0,.22-.22.22-.22s.12-.12.23-.12a.11.11,0,0,1,.11-.11c.12-.11.23-.11.23-.23l.23-.22c.11-.12.22-.23.22-.34S81.5,145.48,81.28,145.48Zm1.58-1.24s0-.12-.11-.12a.43.43,0,0,1-.23-.11c-.34.11-.34.23-.45.45-.11,0-.11.12-.23.23s-.11,0-.22.11a.66.66,0,0,0-.12.45l.12.12v.11h.11v-.11l.23-.23a.38.38,0,0,0,.22-.11l.12-.11.22-.23c.23-.11.23-.11.23-.23l.11-.11Zm5.21-2.94c0-.11-.22-.23-.22-.23a.83.83,0,0,0-.57.23.41.41,0,0,1-.34.11c-.11-.11-.11-.11-.22,0s-.12,0-.23.11-.23.23-.34.23a.42.42,0,0,1-.34.11h-.34l-.45.23c-.23.11-.23.22-.34.34a.11.11,0,0,1-.12.11,1.32,1.32,0,0,1-.34.45.11.11,0,0,0-.11.12c-.11,0-.23.11-.34.11h-.11a.39.39,0,0,0-.23.11c-.11.11-.23.11-.34.23a.41.41,0,0,0-.11.34V144h.22a.43.43,0,0,1,.34-.11c.23-.12.34-.12.34-.23s.12,0,.23-.11a.43.43,0,0,0,.23-.11.55.55,0,0,1,.45-.23c.11-.11.23-.11.45-.23,0-.11.12-.11.23-.22a4.54,4.54,0,0,0,.91-.34,1,1,0,0,0,.67-.34.89.89,0,0,1,.46-.11c.22,0,.22-.12.34-.23v-.11c.22-.12.22-.12.22-.23S88.19,141.3,88.07,141.3Zm-.2-21s0,.12.11.12h1.25a1.16,1.16,0,0,0,.34-.23v-.34c-.12-.11-.34-.11-.68,0l-.23.11c-.11,0-.11.12-.22.12S87.87,120.24,87.87,120.35Zm3.49,19.82s0-.11-.11,0a1.27,1.27,0,0,0-.57.11c-.57.11-1.25.23-1.7.34s-.45.23-.57.34a.11.11,0,0,1-.11.11v.23h.11a2.26,2.26,0,0,0,1-.23,1.34,1.34,0,0,0,.57-.22c.11,0,.11-.12.45-.23S91.47,140.28,91.36,140.17Zm-1.57-19.93h.12a.38.38,0,0,0,.22-.11h.12c.11,0,.11.11.22,0l.12-.11.11-.12h.11c.12,0,.23.12.23,0a.42.42,0,0,0,.34-.11c.11-.11.11-.11.11-.23v-.11c.12-.11.23-.23.23-.23s.11-.11.23-.11.11.11.22,0,.23,0,.23-.23v-.11a.11.11,0,0,0-.11-.11h-.57c-.11,0-.11.11-.23.11a.11.11,0,0,1-.11.11A.4.4,0,0,0,91,119c-.23.11-.34.22-.57.22s-.22.12-.34.23h-.34v.22h-.11v.23h-.11A.41.41,0,0,0,89.79,120.24ZM96.68,138h-.22c-.12,0-.23-.11-.34-.11h-1a.43.43,0,0,1-.34.11,2.3,2.3,0,0,0-.8.11c-.33,0-.67.12-1,.12s-.57.11-.8.11a.41.41,0,0,1-.34.11c-.22,0-.22.11-.34.11s0,.12-.11.12-.11,0-.23.11v.11c0,.12.23.23.23.23h.11c.12,0,.34-.11.46-.11v-.12h.22a.41.41,0,0,0,.34.12c0-.11.12-.11.23-.11a.39.39,0,0,1,.34-.12.22.22,0,0,1,.34,0h.22a1.06,1.06,0,0,0,.57-.11c.23,0,.23-.11.34-.11l.11-.12a1.29,1.29,0,0,1,.57-.11.35.35,0,0,1,.45,0h.46a.86.86,0,0,0,.45-.22A.11.11,0,0,0,96.68,138Zm-3.5-8.72a.41.41,0,0,0,.11.34v.45a.67.67,0,0,1,.12.46c0,.11,0,.11.11.22s.11.57.23.57v.11l.11-.11v-.23a.43.43,0,0,0-.11-.34c.11,0,.11-.11.11-.34a.4.4,0,0,1,.11-.33v-.23c0-.11,0-.23-.22-.23s-.12-.11-.12-.22a.43.43,0,0,1-.11-.23.42.42,0,0,0-.11-.34h-.12C93.18,128.85,93.18,129.19,93.18,129.3Zm.23-2.49h.11c.12,0,.12-.11.12-.34a.11.11,0,0,0,.11-.11V126a.42.42,0,0,0,.11-.34v-.11c0-.12.12-.12.12-.23s.11-.23.11-.34h.11a.8.8,0,0,1,.12-.45.67.67,0,0,1,.11-.45,1.46,1.46,0,0,0,.12-.57v-.34H94l-.11.11c0,.12-.12.23-.23.57v.79a.11.11,0,0,0-.11.11c0,.12,0,.23,0,.34a.43.43,0,0,0-.11.34.87.87,0,0,1-.11.57v.11A1.48,1.48,0,0,0,93.41,126.81Zm1.14-4.19v.12c.11,0,.11.11.22.11s0-.11.12-.23a.43.43,0,0,1,.11-.34,1.41,1.41,0,0,0,.34-.56c.11-.23.23-.34.34-.57l.23-.34.11-.11v-.11c.11-.12.11-.12.11-.23v-.11c0-.12-.11-.12-.22-.12a.38.38,0,0,0-.23.12,1.32,1.32,0,0,0-.45.34c-.12.11-.12.22-.12.45a1.63,1.63,0,0,0-.34.45c0,.11-.11.23-.22.45S94.43,122.4,94.55,122.62ZM96,139.83v-.11h-.23a.11.11,0,0,0-.11.11h-.34c-.11,0-.11,0-.11.12a1.2,1.2,0,0,0-.34.11v.11H95s0,.12.12,0h.11c0,.12.11.12.22.12a.11.11,0,0,0,.12.11l.11.11a.11.11,0,0,0,.11-.11v-.23l.12-.11C96,140.06,96,140,96,139.83Zm.46-5v-.11c0-.11,0-.23-.11-.23s-.12-.11-.34,0l-.12.12c-.11.11-.11.11-.11.22a.11.11,0,0,0,.11.12.11.11,0,0,1,.12.11v.23h.45c.11,0,.11,0,.11-.12v-.11C96.57,135,96.57,134.85,96.46,134.85Zm.45,1v-.11c.11,0,.11,0,.11-.11l-.11-.12v-.11c-.11-.11-.11-.11-.23-.11a.4.4,0,0,0-.33.11l-.23.23c0,.11.11.22.22.33h.12v.11c.11,0,.11,0,.11.11l.11.11a.38.38,0,0,1,.23.12.11.11,0,0,0,.11-.11c.12-.12,0-.12,0-.23S97,136,96.91,135.87ZM96.36,124h.22c0-.11,0-.11.12-.22s.11-.12.11-.23v-.11c.11,0,.11-.11.11-.23a.11.11,0,0,1,.12-.11v-.45l.11-.12a.69.69,0,0,1,.11-.45c.12-.11.12-.23.12-.45,0,0,0-.12.11-.12s0-.22,0-.34,0-.11-.11-.22-.11-.12-.23-.12H97c-.23,0-.11.23-.11.34l-.12.12c-.11,0-.22,0-.22.11v.23a1.62,1.62,0,0,0,0,.22l-.11.12a.11.11,0,0,0-.11.11.42.42,0,0,0-.11.34.39.39,0,0,0,.11.34c.11.11.11.22.11.45a.39.39,0,0,0-.11.23l-.12.11v.11C96.24,123.76,96.13,123.87,96.36,124Zm.77,15.63c-.11,0-.22.11-.34.22V140c.12.11.12.11.23.11h.45l.12.12h.11c0,.11.11.11.23,0H98l.11.11c.11,0,.12-.11.23-.11v-.12c.11,0,.11-.11.11-.34a.34.34,0,0,1-.11-.22c-.11-.12-.34,0-.57,0a.11.11,0,0,1-.11.11c-.11-.11-.11,0-.23,0h-.34Zm.12-2.72v.23h.11a.37.37,0,0,0,.23.11.11.11,0,0,0,.11.11h.23v-.12s.11-.11,0-.11h-.11c.11-.11.11-.11,0-.23v-.11s.11-.11,0-.11v-.12s-.12,0-.23.23h-.11a.16.16,0,0,0-.23,0Zm0-16.3v.11c.11.11.11.11.22.11a1.33,1.33,0,0,0,.46-.45c.11-.22.22-.22.22-.34a.33.33,0,0,1,.12-.22c.11-.12.22-.23.22-.34s.12-.12,0-.23a5.07,5.07,0,0,0-1.13.91C97.27,120.47,97.27,120.47,97.27,120.59Zm1.33,19.47h.12a.11.11,0,0,1,.11.12h.57c.11.11.11.11.22.11l.12-.11c.11,0,.11,0,.11-.23v-.22c-.23-.23-.34-.23-.45-.12H99c-.23-.11-.23,0-.35.23v.22Zm1.05-24.56c0,.11,0,.11.11.11a.43.43,0,0,1,.23-.11c.11-.12.22-.34.34-.46h.11c0-.11.11-.11.23-.22s.11,0,.23-.12l.22-.22c0-.12.11-.23.23-.34s.22-.11.34-.23.11,0,.22-.11.23-.23.46-.34l.34-.34c0-.11,0-.11.11-.23s.34-.33.45-.45.34-.11.46-.22.22-.12.34-.12a.11.11,0,0,0,.11-.11.37.37,0,0,0,.23-.11.25.25,0,0,0,.22-.23s.12-.11,0-.11-.11,0-.22,0-.23.11-.34.11a.59.59,0,0,0-.46.23.34.34,0,0,0-.22.11c-.12,0-.23.11-.34.23s-.23.11-.45.22a3,3,0,0,1-.8.57l-.11.11a3.12,3.12,0,0,1-.68.57,1.88,1.88,0,0,0-.68.67c-.11.12-.23.23-.34.34l-.23.23v.23c-.11.11-.11.11-.11.22h-.11C99.54,115.5,99.54,115.5,99.65,115.5Z" transform="translate(-11.63 -8.55)"/><path d="M121.54,180.05c-1.35-2.49-2.14-5.89-2.59-10.08-5.44,6-6.12,10.53-6,12.68a.64.64,0,0,1-1,.56,8.42,8.42,0,0,1-2.83-3.62s-2.37-4.76,9.52-13.24c-.44-5.55-.44-12.11-.54-19.36,0,0,.12-6.45-1.81-9a.8.8,0,0,1,.46-1.24,7.1,7.1,0,0,1,6.79,1.93,9.48,9.48,0,0,1,2.71,6.91q0,8.33,0,15.28a42.32,42.32,0,0,0,4.3-5c6.58-9.85,6.25-15.85,5.57-18.45-.23-.57.45-1,.91-.79a10,10,0,0,1,4.18,3.4S146,146.34,128,162.62c-.57.57-1.14,1.13-1.82,1.7.11,6.91.56,12.34,1.68,15.63a8.67,8.67,0,0,0,1.13,2,.79.79,0,0,1-.45,1.25A6.47,6.47,0,0,1,121.54,180.05Zm-1.09-36.68v.56c.11.23.11.23.34.23a.11.11,0,0,1,.11.11H121v-.11c.12,0,.12,0,0-.11v-.23a.21.21,0,0,0,0-.34c0-.11,0-.22,0-.34v-.45h-.12c0-.11,0-.11-.11-.11s-.34.11-.34.22C120.22,143,120.34,143.14,120.45,143.37Zm.34,2.72v.11a.42.42,0,0,0,.11.34h.23v-.23c.11-.11,0-.34,0-.45a.37.37,0,0,1,.11-.23v-.11a.42.42,0,0,0,.11-.34c-.11-.11-.11-.11-.11-.23s0-.34-.11-.45-.46,0-.57.11h-.11a1.46,1.46,0,0,0,.11.68.11.11,0,0,1,.11.12v.45C120.67,146,120.67,146.09,120.79,146.09Zm.56,2.37v-.11c.11-.11.11-.11.11-.22s0-.12-.22-.12v-.11c-.12,0-.12,0-.12-.12a.24.24,0,0,0-.22-.22h-.12V148a4.9,4.9,0,0,0,.12.57v.11a1.2,1.2,0,0,0,.11.34h.11c.12,0,0-.11,0-.23v-.11h.12A.37.37,0,0,1,121.35,148.46Zm.55,13c0,.22,0,.45.12.56l.11.11c.11,0,.11-.11.11-.22a.43.43,0,0,0,.12-.34c.11-.34.11-.34.11-.45s-.11-.12-.11-.23,0-.34,0-.45v-1.14a.33.33,0,0,0-.12-.22c0-.34,0-.68,0-1a1.57,1.57,0,0,0-.12-.79v-.46c0-.22,0-.34-.11-.34s0-.11-.11-.11c0-.23,0-.23-.12-.34a.11.11,0,0,0-.11-.11c-.11,0-.22.22-.34.34a1,1,0,0,0,.11.56.41.41,0,0,1-.11.34v.23a.42.42,0,0,0,.11.34.64.64,0,0,0,.12.45c0,.11,0,.11-.12.23s-.11.22-.11.34a1,1,0,0,1,.11.56c0,.23.11.34.11.46a.11.11,0,0,1,.12.11,1.93,1.93,0,0,1,.22.57v1Zm-.33-8.38a11.49,11.49,0,0,0-.23,1.81,2.9,2.9,0,0,1,.12.68c.11,0,.11,0,.11.11a.11.11,0,0,0,.11.11h.11s.12-.11.12-1.24v-1.13c0-.34,0-1.14-.22-1.14v.12A1.35,1.35,0,0,0,121.57,153.11Zm.44,10.41v.23c0,.34.12.34.23.34l.11.11h.12c.11-.11.11-.11,0-.22v-.23c.11-.11,0-.23,0-.34v-.79a.12.12,0,0,0-.12-.12v-.11a.53.53,0,0,0-.34.11c-.11,0-.11,0-.11.12s0,.34,0,.56A.43.43,0,0,1,122,163.52Zm.34,2.83a.41.41,0,0,0,.11.34v.12a.12.12,0,0,0,.12-.12c.11,0,.11-.11.11-.22v-.91a.22.22,0,0,0,0-.34V165c0-.23,0-.34-.11-.46a.11.11,0,0,0-.11-.11c-.12,0-.46.11-.46.23a1.83,1.83,0,0,0,.12.67v.23c0,.11.11.11.11.23v.45A.11.11,0,0,0,122.35,166.35Zm.68,2.16v-.12c-.12,0-.12,0-.23-.11h-.11v-.23a.22.22,0,0,0-.23-.22.41.41,0,0,0-.11.34v.22a.89.89,0,0,1,.11.46v.22a1.2,1.2,0,0,0,.11.34h.12a.11.11,0,0,0,.11-.11v-.45l.11-.12C122.91,168.62,123,168.62,123,168.51Zm1.35,10c.11,0,.11-.11.11-.23l.11-.11v-.23c0-.11-.11-.11-.11-.22v-.12a.38.38,0,0,1-.11-.22.4.4,0,0,1-.12-.34c0-.23-.11-.34-.22-.34l-.11-.11c.11,0,.11-.12,0-.12h-.12v-.11h-.22a.52.52,0,0,0,0-.57.38.38,0,0,0-.12-.22l-.11-.12c0-.22-.11-.34-.23-.34a.39.39,0,0,1-.11.23,1.7,1.7,0,0,0,.11.79c0,.11,0,.23.12.23h.22a.38.38,0,0,0-.22.11c-.12.23,0,.23.11.34-.11.11-.11.11-.11.23a.11.11,0,0,1,.11.11c.11,0,.11,0,.22.11h-.11v.23a.37.37,0,0,0,.11.23.35.35,0,0,1,.23.11.43.43,0,0,1,.23.11h.11s0,.12-.11.12v.22C124.15,178.36,124.15,178.47,124.38,178.47Zm-1.22-26.95v.23c.11.11.11.11.11.23s0,0,0,.11a.39.39,0,0,0-.11.23c0,.11,0,.11.11.22s.11.23.11.23l.12.11c.11.12.22.23.22.34v.23a.11.11,0,0,0-.11.11v.11c0,.12,0,.23.22.34H124l.11-.11c0-.11,0-.11.11-.23v-.79a.82.82,0,0,0-.12-.45v-.57a.69.69,0,0,0-.11-.45c0-.11-.11-.11-.11-.23s0-.11,0-.22h-.12a.11.11,0,0,0-.11-.12l-.11-.11c-.11,0-.34.11-.34.23s0,.22.11.34l-.11.11Zm0-1.24c0,.22,0,.34.11.34l.12.11h.11a1,1,0,0,0,.23-.68.5.5,0,0,0-.12-.34v-.22c0-.12,0-.57-.22-.57,0,.11-.12.11-.12.23A2.09,2.09,0,0,0,123.16,150.28Zm1,5v-.11c-.11,0-.34.11-.45.11h-.11a.86.86,0,0,0,.11.45v.23c0,.11,0,.23.11.23s0,.22.12.22h.11a.11.11,0,0,0,.11-.11v-.34c0-.11.12-.11.12-.11v-.34C124.29,155.37,124.29,155.26,124.17,155.26Zm0-.68v-.45h-.11a.22.22,0,0,0-.34.11.11.11,0,0,0-.11.11c0,.12,0,.12.11.23v.23c0,.22.11.22.23.22h.11v.12c.11,0,.11-.12.11-.12v-.45Zm-.45,2.94v.12l.11.22h.11s.12,0,.12-.11v-.11l.11-.12v-.11h.11v-.11s0-.11-.22-.11v-.12c0-.11-.12-.11-.23-.11h-.11v.56Zm.77,21.63c.11,0,.11-.11.23-.11h.11l.11-.12a.11.11,0,0,0-.11-.11v-.11c0-.12,0-.12-.11-.12v-.22h-.12a.34.34,0,0,0-.22.11l-.12.11a.43.43,0,0,0-.11.23h.23V179A.11.11,0,0,1,124.49,179.15Zm.79.45v-.34a.11.11,0,0,0-.11-.11V179c0-.12-.11-.12-.23-.12s-.11,0-.22.23a.11.11,0,0,0-.12.11h-.11c0,.23.22.23.34.23v.11h.11v.12h.11v.11h.23v-.11h.11C125.39,179.6,125.39,179.6,125.28,179.6Zm.79.57c0-.11,0-.11-.11-.11v-.34c-.11,0-.11.11-.23.22a.38.38,0,0,0-.22.12v.11c0,.11,0,.11.11.11a.34.34,0,0,0,.23.12h.22a.12.12,0,0,0,.12-.12C126.19,180.17,126.19,180.17,126.07,180.17Zm7.62-27.5h.11v.11l.11-.11a.12.12,0,0,1,.12-.12h.11c.11,0,.11,0,.23-.11h.11v-.11l-.11-.12a.11.11,0,0,1,.11-.11V152a.16.16,0,0,0,0-.23h-.11c-.12,0-.12,0-.23.11V152c-.11.11-.23.22-.23.34h-.11A.57.57,0,0,0,133.69,152.67Zm1.24-1.59c0,.11.12.12.12.12h.22v-.12c.12,0,.23-.22.23-.22l.11-.12h.12c.11-.11.22-.11.22-.22a.12.12,0,0,1,.12-.12c.11-.22.11-.22.11-.34V150c0-.11-.34-.23-.45-.23s-.23.23-.23.46a.11.11,0,0,0-.11.11v.11c-.12,0-.12,0-.12.12l-.11.11a.39.39,0,0,0-.11.23A.38.38,0,0,1,134.93,151.08Zm1.14-1.47.11.11s0,.12.11.12a.12.12,0,0,1,.12-.12.11.11,0,0,1,.11-.11c0-.11.11-.22.11-.34s.12-.11.23-.22.11-.12.11-.23v-.23h-.45c-.23,0-.23.12-.23.34s0,.11-.11.23l-.11.11C136,149.5,136,149.5,136.07,149.61Zm.79-1.24a.11.11,0,0,0,.11.11l.12-.11.22-.23c.23-.11.23-.11.23-.23a.11.11,0,0,1,.11-.11c0-.11.12-.23.12-.34s.11-.11.11-.23a1.62,1.62,0,0,0,.23-.67,3.06,3.06,0,0,1,.34-.68,1.5,1.5,0,0,0,.11-.68.39.39,0,0,1,.12-.34.17.17,0,0,0,0-.23c0-.11-.12-.11-.12-.11v-.23l-.11-.11h-.23a.11.11,0,0,0-.11.11.43.43,0,0,0-.11.34v.11l-.12.12c-.11.11-.11.11-.11.22v.57l-.11.11c-.12,0-.12.12-.23.23s-.11.23-.11.34a2.66,2.66,0,0,1,0,.34c0,.11,0,.11.12.11a4.9,4.9,0,0,1-.12.57.24.24,0,0,1-.22.22c0,.12-.12.12-.12.23v.11C136.86,148,136.75,148.14,136.86,148.37Zm1.48-4.53V144l.11.12h.11c.12,0,.23-.46.34-.8v-.9c0-.12.12-.23,0-.34v-.23c0-.11,0-.22-.11-.22v.11a2.1,2.1,0,0,0-.23.79,6.54,6.54,0,0,1-.34.91C138.22,143.73,138.22,143.84,138.34,143.84Z" transform="translate(-11.63 -8.55)"/><path d="M169,164.93c-.57,0-1.14.11-1.59.11a8.56,8.56,0,0,1-2.38-.34l-.56,1.47c-1.25,3.06-5.68,13.24-12.13,16.06a9.19,9.19,0,0,1-3.4.79,8.93,8.93,0,0,1-2.83-.56c-14.6-5.23-2.58-29.67-2.58-29.67,6.81-15,17-16.63,21.19-15.27a5.08,5.08,0,0,1,.79.35,6.7,6.7,0,0,1,2.83,3.06c1,2,1.35,4.87,1,8.26a54.11,54.11,0,0,1-3.41,13.47,9.51,9.51,0,0,0,2.61,0c5.2-.78,9.29-6.44,9.29-6.44a1.12,1.12,0,0,1,1.58-.34,1,1,0,0,1,.23,1.59C179.53,157.69,175.11,163.92,169,164.93Zm-26.39,2.69a.4.4,0,0,0,.12-.34c.11,0,.11-.11.11-.23s.11-.11.11-.22.12-.12.12-.23,0-.23-.12-.23v-.22a.16.16,0,0,1,0-.23.5.5,0,0,0-.12-.34s-.11-.11-.11,0-.11.23-.11.34-.12.23-.12.34v.79c0,.12-.11.12-.11.23v.57h.22Zm.79,8.61a.34.34,0,0,1-.23-.12h-.11V176a.25.25,0,0,0-.23-.23l-.11.11a.16.16,0,0,0,0,.23v.57a1.2,1.2,0,0,0,.11.34h.11c.12,0,.12,0,.12-.12v-.22c.11,0,.11,0,.11-.12l.11-.11.12-.11Zm0-2.83c-.11-.12-.23-.12-.45-.12a.39.39,0,0,0-.23.11c-.11.12,0,.34,0,.57v.68a.11.11,0,0,1,.11.11c-.11,0,0,.23,0,.23h.23a.11.11,0,0,0,.11-.11v-.34c0-.12,0-.12.12-.23v-.11h.11v-.46C143.51,173.51,143.51,173.51,143.4,173.4Zm.11-1.36v-.12c0-.11-.12-.11-.23-.11h-.23v.11c-.34.12-.22.23-.11.46a.33.33,0,0,1-.12.22v.23c0,.22.12.22.23.22l.11.12h.12a.11.11,0,0,0,.11-.11v-.23c.11-.11.11-.11.11-.23v-.34C143.63,172.15,143.63,172,143.51,172Zm.92-11.1v-.22c-.11-.12-.11-.12-.34-.12a.34.34,0,0,1-.22.11,2.19,2.19,0,0,0-.23,1V162a.11.11,0,0,0-.12.11c0,.12-.11.23-.11.34v.34a.43.43,0,0,0-.11.34v.23a.64.64,0,0,0-.12.45v.11h.23a.34.34,0,0,1,.11-.22v-.23a1.43,1.43,0,0,0,.23-.45.42.42,0,0,1,.11-.34l.12-.34h.11c0-.11.11-.23.11-.45s.12-.23.12-.34A1.58,1.58,0,0,0,144.43,160.94Zm.34-1.13c.12-.23.23-.34.23-.57s.11-.34.23-.56.22-.45.22-.57V158a.16.16,0,0,0,0-.23c-.11-.11-.34.12-.45.12-.23.22-.23.45-.34.79a.88.88,0,0,1-.11.45c-.12.11-.12.23-.23.45s0,.34.11.57v.11h.12c.11,0,.11,0,.11-.11S144.77,159.92,144.77,159.81Zm.57,2.49h.11c.11,0,.11,0,.23-.11a.42.42,0,0,0-.23-.12V162h-.11c.11-.11,0-.23-.12-.23h-.11l-.11.12V162c0,.11,0,.11-.12.23v.34h.23l.11-.12S145.34,162.41,145.34,162.3Zm21.75-13.22a13.54,13.54,0,0,0-.79-7.14,3.18,3.18,0,0,0-.79-1.13,2,2,0,0,0-1.13-.79C158.27,138.76,151,155.4,151,155.4s-10.1,23-3.53,25.13a5.41,5.41,0,0,0,4-.45c2.72-1.13,5.44-4.18,8-8.82a46.12,46.12,0,0,0,3-5.88L163,164l-1.7-1c-.57-.34-4.07-2.73-2.15-5.55a2.09,2.09,0,0,1,1.93-1,.66.66,0,0,1,.68.68A5.94,5.94,0,0,0,164,161.3,48.08,48.08,0,0,0,167.09,149.08Zm-21.19,12H146v-.12l.11.12v-.12c.11,0,.11,0,.11-.11v-.11c.12,0,.12-.12.12-.23h-.12s0-.11-.22-.23h-.34c-.12,0-.12.23-.12.34v.23h-.11v.45a.11.11,0,0,0,.11.12h.12l.11-.12C145.9,161.28,145.9,161.17,145.9,161.06Zm-.45-3.85c0,.11,0,.11.12.11s.11,0,.22-.23.12-.22.34-.45.23-.34.23-.45.11-.23.23-.34.11-.34.22-.57a4.45,4.45,0,0,1,.35-.68c.11-.22.22-.56.45-1l.11-.12a5.46,5.46,0,0,1,.68-1.36.38.38,0,0,1,.12-.22.43.43,0,0,0,.11-.34.88.88,0,0,0,.23-.45L149,151c.11-.22.11-.56.23-.68a.45.45,0,0,0,.22-.45v-.23c.12-.22.12-.22.12-.34v-.22a.83.83,0,0,0-.45.22,2.63,2.63,0,0,0-.46.68v.12c0,.11-.11.22-.22.34l-.35.34a1.15,1.15,0,0,0-.11.45c-.11.22-.11.45-.23.56a1.48,1.48,0,0,1-.34.46l-.22.22c-.12.23-.12.34-.23.46s-.11.22-.11.45-.12.45-.23.56v.23a1.06,1.06,0,0,1-.11.57c0,.11-.12.22-.12.45a2,2,0,0,1-.34.56,1.66,1.66,0,0,1-.34.46v.22A2.2,2.2,0,0,0,145.45,157.21Zm.91,3c.11-.11.22-.11.22-.22v-.12c.12-.11.12-.11.12-.22s0-.11-.23-.23H146v.34l-.12.11a.39.39,0,0,0,.12.34h.11l.11.12h.12Zm3.41-11.43a.34.34,0,0,0,.22-.11c.23-.23.46-.68.91-1.25s.45-.67.45-.79.12-.22.46-.68.56-.79.68-.9c.22-.45.22-.45.11-.45s-.11,0-.11,0l-.23.22a20.14,20.14,0,0,0-2.15,2.72c-.34.68-.46.68-.46.79v.23C149.65,148.72,149.65,148.83,149.77,148.83Zm4.64-5h.12c.33,0,.33-.11.34-.33a.33.33,0,0,0,.22-.12.11.11,0,0,1,.12-.11.22.22,0,0,0,0-.34v-.11l-.12-.12H155l-.11.12a.82.82,0,0,0-.34.22.42.42,0,0,0-.12.23c-.22.11-.22.11-.22.23v.11S154.19,143.74,154.41,143.85Zm1-1a.37.37,0,0,0,.23.11c.11,0,.22-.11.34-.34v-.11h.11s.12,0,.12-.11h.11c.11-.12.11-.12.11-.23h.11a.38.38,0,0,0,.12-.23v-.11h-.12c0-.11-.11-.11-.11,0h-.11a.37.37,0,0,0-.23.11h-.34a.38.38,0,0,0-.22.11.12.12,0,0,1-.12.12c-.22.11-.22.22-.22.34S155.21,142.72,155.43,142.84Zm1.93-1.25a.11.11,0,0,0,.11.12h.23s0-.12.11-.12a.43.43,0,0,0,.23-.11h.11c.11,0,.23-.23.23-.23v-.11s0-.11-.12,0h-.11c-.11-.11-.11-.11-.23-.11h-.11c-.11-.11-.11-.11-.23-.11s-.11.11,0,.33h-.11v.12C157.36,141.37,157.36,141.59,157.36,141.59Z" transform="translate(-11.63 -8.55)"/><path d="M191.77,146.5c-7,13-15.2,28.29-13.39,32.59,0,0,1.24,2.72,4.52,1.36a31.52,31.52,0,0,0,3.18-2.14,68.1,68.1,0,0,0,8.61-8.6c5.67-6.45,10.54-13.46,10.66-13.46a1.11,1.11,0,0,1,1.58-.34,1.21,1.21,0,0,1,.23,1.58,155.53,155.53,0,0,1-10.77,13.69,66,66,0,0,1-9,8.94,14.4,14.4,0,0,1-5.55,3,6.43,6.43,0,0,1-6.79-3.18c-5.08-8.72,1.72-21.62,9-36.11,1.93-3.84,4.54-9.61,6.7-14.14-1.93.11-3.74.22-5.44.22a43.35,43.35,0,0,1-7.13-.57c-3.51-.57-6-1.59-7.36-3.07a5.71,5.71,0,0,1-1.24-1.92,4.19,4.19,0,0,1,0-1.82,2.76,2.76,0,0,1,2.38-2.26c.34-.11.57.12.57.46-.12,1.35,0,5.32,5.54,6.34,1.24.23,2.49.34,3.73.46a78.51,78.51,0,0,0,10-.22c.68-1.58,1.25-2.94,1.59-3.73a47.66,47.66,0,0,0,2.16-7.25.88.88,0,0,1,1.47-.45A11.26,11.26,0,0,1,200.85,126c1.92-.22,4.3-.67,6.79-.9a60.27,60.27,0,0,1,8.61-.33c3.39,0,6.56.35,8.37,1.14,2.72,1.36.91,3.74.11,4.65-.22.11-.45.11-.56-.12-.68-1.81-3.06-2.61-3.85-2.83-2.83-.68-7-.8-12.45-.24-2.84.34-5.55.67-7.59,1.12a7.08,7.08,0,0,1-.46,1.13A178.64,178.64,0,0,1,191.77,146.5Zm-16,25.46c.11,0,0-.12,0-.12a.39.39,0,0,0-.23-.11v-.11c-.11,0-.11,0-.11-.12s-.11-.34-.23-.34l-.11.12v.56a5.29,5.29,0,0,0,.11.57v.11a.11.11,0,0,0,.12.11.35.35,0,0,0,.11.23c0,.11,0,.11.11.23h.12v-.34a.12.12,0,0,0-.12-.12c.12-.11.12-.11.12-.22v-.12a.11.11,0,0,1,.11-.11Zm.68-4.31v-.11c0-.11-.11-.11-.34-.11h-.34a1.7,1.7,0,0,0-.11.79c0,.11,0,.11-.11.23v.34a.33.33,0,0,1-.12.22v.79c0,.12,0,.12.12.12h.11a.35.35,0,0,1,.11-.23v-.11c.12,0,.12-.23.12-.34s.11-.23.11-.34l.11-.11.12-.12a.34.34,0,0,1,.11-.22v-.34A.89.89,0,0,0,176.46,167.65Zm.69-2.37c-.12,0-.12-.12-.23-.12a.34.34,0,0,1-.23.12c-.34.22-.34.34-.34.68,0,.11,0,.11-.11.33a.43.43,0,0,0-.11.23c-.12.34,0,.34.11.57h.11a.11.11,0,0,0,.11.11.11.11,0,0,0,.12-.11.41.41,0,0,1,.11-.34.43.43,0,0,0,.11-.34c.12-.11.12-.34.23-.45a.93.93,0,0,0,.12-.46v-.22Zm4.19-4.53v-.11c0-.11,0-.23-.11-.23s-.23,0-.68,1c-.23.45-.23.57-.34.68s0,.11-.12.45a2,2,0,0,0-.23.57.5.5,0,0,0,.12.34.11.11,0,0,0,.11.11h.11v-.11c-.11-.12,0-.23,0-.45a1.88,1.88,0,0,1,.34-.46v-.11a8.29,8.29,0,0,0,.69-1A3.14,3.14,0,0,0,181.34,160.75Zm2.61-6v-.11c-.11-.11-.11,0-.23.11l-.22.23-.34.34c0,.11,0,.11-.12.23s-.11.22-.11.45-.11.22-.23.34a6.39,6.39,0,0,0-.34.79,9.3,9.3,0,0,1-.45,1,1.18,1.18,0,0,0-.34.79c-.12.23-.12.34-.23.45a.22.22,0,0,0,0,.34v.12c-.11.22-.11.22,0,.34v.11h.45v-.11c.12-.12.12-.34.23-.46v-.11c0-.11.11-.11.11-.23s.23-.11.23-.22a.86.86,0,0,1,.11-.34v-.34a.93.93,0,0,1,.23-.34.25.25,0,0,0,.23-.23,2.71,2.71,0,0,0,.22-.56.67.67,0,0,0,.12-.46c-.12,0-.12,0-.12-.11a1.67,1.67,0,0,1,.23-.68.88.88,0,0,1,.23-.45l.22-.23v-.11C184,155.09,184.06,155,184,154.75Zm.8-4.18v-.12l.11-.11c.11-.23,0-.34,0-.34a.11.11,0,0,0-.11-.11c-.12,0-.23.22-.23.34a.38.38,0,0,0-.11.22,1.75,1.75,0,0,0-.23.57.11.11,0,0,0-.11.11c-.12.11-.12.45-.12.45v.12h.11a.42.42,0,0,0,.12-.23l.11-.11c.12,0,.12-.12.23-.23l.11-.11c.12,0,.12,0,.23-.11v-.12A.34.34,0,0,0,184.75,150.57Zm2.26-4.08v-.11c-.11-.11-.45,0-.45,0h-.11a.92.92,0,0,0-.23.68c-.11.11-.11.11-.11.22a.12.12,0,0,1-.12.12c0,.11,0,.11-.11.22s0,.12-.11.23-.12.23-.12.34v.11a.7.7,0,0,0-.11.45v.12h.11c.12,0,.12-.12.23-.23v-.11a.88.88,0,0,0,.23-.45c.11,0,.11-.12.22-.23a.11.11,0,0,0,.12-.11h.11c0-.12.11-.23.11-.34s.12-.23.23-.34a.89.89,0,0,0,.11-.46Zm1.14-2.37h-.45v.12a.61.61,0,0,0-.34.56c0,.12-.12.23-.23.34s-.11.23-.11.34-.12.34,0,.46V146a.11.11,0,0,1,.12.11.11.11,0,0,0,.11-.11c.11-.11.11-.23.23-.34s.11-.23.22-.45.12-.23.23-.34c.12-.34.12-.34.23-.45v-.34Zm2.38-4.53a3.79,3.79,0,0,0,.45-1c0-.23.12-.34.12-.45.22-.23.23-.34.11-.45v-.12c.12-.22.12-.22.12-.34v-.11l-.12-.11c-.11,0-.34.11-.45.11a1.62,1.62,0,0,0-.23.68v.11l-.22.23c-.12.11-.12.22-.23.22a.89.89,0,0,1-.11.46.64.64,0,0,1-.12.45c0,.23-.11.23-.22.34s-.12.11-.23.22a3.55,3.55,0,0,1-.23.68,1.58,1.58,0,0,0-.11.57v.23a3.09,3.09,0,0,1-.23.79.81.81,0,0,1-.23.45c-.11.11-.22.23-.22.34a.11.11,0,0,0-.12.11,1.69,1.69,0,0,0-.22.68.11.11,0,0,0,.11.12c.11,0,.11,0,.23-.12l.34-.34c.11-.22.22-.34.22-.45a.38.38,0,0,0,.12-.23c.11-.22.22-.33.22-.45s.12-.34.23-.56a2.56,2.56,0,0,0,.45-.8A13.48,13.48,0,0,1,190.53,139.59Zm-1.36,6.56c-.12,0-.12,0-.12-.11h-.11c-.11,0-.11,0-.11.11l-.12.12c-.11.11-.22.22-.22.34s-.12.22-.12.34-.22.22-.22.34,0,.11.11.11.11.11.23.11h.22c.23-.11.23-.22.23-.45s0-.11.11-.23.12-.11.12-.22S189.28,146.27,189.17,146.15Zm1.13-1.92a.11.11,0,0,1-.11-.11h-.12l-.11.11v.11c-.11,0-.23.23-.23.23l-.22.23-.12.11c-.11,0-.11.11-.22.23a.33.33,0,0,1-.12.22.42.42,0,0,0-.11.34.75.75,0,0,0,.57.34c.11,0,.11,0,.11-.11s.11-.23.23-.45v-.23c.11-.11.11-.11.11-.23a.11.11,0,0,0,.11-.11c.12-.11.12-.11.12-.23v-.11A1.2,1.2,0,0,0,190.3,144.23Zm1.25-1.92h-.12c0-.12-.11,0-.11,0s0,.11-.11.11-.12.11-.23.11a.11.11,0,0,0-.11.12h-.23v.11a.37.37,0,0,0,.11.23v.22a.16.16,0,0,0,0,.23h.12a.38.38,0,0,0,.22-.11.42.42,0,0,0,.12-.23c0-.11.11-.23.22-.34v-.11C191.55,142.65,191.55,142.31,191.55,142.31Zm-.34-5.78a.12.12,0,0,1,.12.12s-.12.22,0,.22h.11s.23-.11.79-1.24c.23-.57.23-.68.34-.79a1.77,1.77,0,0,1,.23-.57c.23-.45.45-1.13.34-1.13s0,0-.11,0l-.34.68a11.7,11.7,0,0,0-1.14,1.92C191.21,136.31,191.21,136.31,191.21,136.53Zm4.88-6.79.11.12c0,.11.11.11.34.11h.11c.12,0,.12-.11.23-.11s-.11-.11-.11-.23v-.11c.11,0,.11,0,.11-.11s0-.23-.23-.23l-.11-.11h-.11v.11h-.11c0,.11-.12.11-.12.22v.12A.34.34,0,0,0,196.09,129.74Zm.34-.79a.47.47,0,0,0,.34.12.34.34,0,0,0,.22.11c.23-.11.23-.23.12-.34v-.11c.11,0,.11-.12.11-.12v-.11c.12,0,0-.11,0-.11s.12-.23,0-.23,0-.11-.11-.11-.11,0-.11.11-.12.11-.23.11v.12h-.11c-.12.11-.12.11-.12.22h-.11C196.32,128.73,196.43,128.84,196.43,129Zm1-1.47v.11c-.11.12,0,.12.11.23h.12a.11.11,0,0,0,.11-.11v-.12a.11.11,0,0,0,.11-.11v-.11c.12,0,.12-.23.12-.23h-.34a.12.12,0,0,0-.12.12h-.11c-.11,0-.11-.11-.23,0S197.22,127.37,197.45,127.48Z" transform="translate(-11.63 -8.55)"/><path d="M195.7,179.22c-1.69-5.77,4.66-19.13,6.59-23.32,1.7-3.5,6.92-13.69,8.17-17.76a1.13,1.13,0,0,1,1.7-.57c2.37,1.7,6.1,5.67,2.36,12.46-4.76,8.83-15.2,27.38-12.82,30.56.11.22.45.22.79.11a14.76,14.76,0,0,0,3.85-2.37,60.3,60.3,0,0,0,8.61-8.6c5.67-6.45,10.66-13.46,10.66-13.46a1.13,1.13,0,0,1,1.59-.34,1,1,0,0,1,.22,1.58,155.53,155.53,0,0,1-10.77,13.69,66.54,66.54,0,0,1-9,8.94,14.62,14.62,0,0,1-5.55,3.05,4.89,4.89,0,0,1-1,.11A5.21,5.21,0,0,1,195.7,179.22Zm5.67-10.07c0,.11,0,.11.11.23h.11c.12,0,.12-.12.23-.12V169h.12v-.46c.11-.11.11-.11.11-.22s.11-.23,0-.34l-.11-.11-.12-.12c-.11,0-.11.12-.11.12a.11.11,0,0,1-.11.11.39.39,0,0,0-.12.34c-.11.11-.11.22-.22.34S201.26,169,201.37,169.15Zm.45-1.58c.12.22.46.22.57.22h.11c.12,0,.12-.22.12-.45l.11-.11v-.12l.11-.11v-.11a.36.36,0,0,0,.12-.23v-.11c.11,0,.11-.23.11-.23l-.11-.11h-.12a.11.11,0,0,0-.11.11c-.11,0-.23.23-.23.23a.11.11,0,0,1-.11.11l-.11.11h-.12c-.11.12-.11.12-.11.23s-.11.11-.11.23A.39.39,0,0,0,201.82,167.57Zm.69-6.68h.11v-.12a.24.24,0,0,0,.23-.22c.23-.34.57-.57.68-.91v-.34c0-.11,0-.11-.11-.11s0-.11-.12-.11-.22.11-.45.45-.11.34-.11.45a.36.36,0,0,1-.12.23C202.62,160.32,202.4,160.77,202.51,160.89Zm.79,1.58a.11.11,0,0,0,.11-.11c.12,0,.12,0,.23-.11v-.12a.11.11,0,0,0-.11-.11v-.34c.11-.23,0-.34,0-.34h-.12a.39.39,0,0,0-.11.23c-.11,0-.11.11-.11.22a1.84,1.84,0,0,0-.23.57.11.11,0,0,1-.11.11,2.48,2.48,0,0,1-.12.45V163h.12c.11,0,.11-.12.11-.23a.11.11,0,0,0,.11-.11C203.19,162.7,203.19,162.59,203.3,162.47Zm-.11-3.85.11.12V159c.12.12.12.12.23.12s.23,0,.23-.12.11-.22.11-.34a.11.11,0,0,1,.11-.11s.12,0,.12-.11v-.46a.11.11,0,0,1,.11-.11c.11,0,.11,0,.11-.11s.12-.12.12-.34a.17.17,0,0,0,0-.23V157a.82.82,0,0,1-.12-.45l.23-.23.12-.11v-.12c.11,0,.11-.22,0-.34a.11.11,0,0,0-.12-.11l-.11.11a.38.38,0,0,1-.23.12c-.11.11-.11.11-.11.22l-.11.12v.22c-.12,0-.12.11-.12.23s-.11.22-.22.34a1.72,1.72,0,0,1-.23.68.64.64,0,0,0-.12.45c0,.11,0,.23-.11.23A.15.15,0,0,0,203.19,158.62Zm.9,5.89v-.11c-.11,0-.11,0-.23.11v.11h-.11a.11.11,0,0,0-.11.12h-.23a.11.11,0,0,0-.11.11c0,.11,0,.11.11.23v.22c-.11.12,0,.23.11.23h.12l.11-.11s0-.12.11-.12A1.14,1.14,0,0,1,204,165a.11.11,0,0,1,.11-.11ZM205,158a2.93,2.93,0,0,0-.34.79V159c-.11,0-.11.12-.11.23a.11.11,0,0,0-.11.11.41.41,0,0,0-.12.34l-.11.12c0,.11-.12.34-.12.45h.12v.11h.11a.38.38,0,0,0,.11-.22.12.12,0,0,1,.12-.12,1.32,1.32,0,0,0,.22-.34c0-.11,0-.11.12-.22s.11-.12.11-.23h.11c.12,0,.12-.11.12-.23s.11-.22.23-.33a.72.72,0,0,0,.11-.46v-.11c-.11-.11-.45-.11-.45-.11Zm.57-.34v.11h.11c.12,0,.12,0,.12-.11l.22-.23c.12-.11.12-.23.23-.34s.11-.23.23-.45a.88.88,0,0,0,.11-.45.11.11,0,0,0,.11-.12.11.11,0,0,0-.11-.11c0-.11-.23,0-.34,0-.34.22-.34.34-.34.56s-.11.23-.23.34-.11.23-.11.34S205.46,157.49,205.57,157.61Zm1-2.15c0,.11,0,.11.11.11s.12,0,.23-.11.11-.23.23-.34.34-.23.34-.34,0-.12.11-.23a.88.88,0,0,0,.23-.45c.11-.11.11-.23.22-.45a2.55,2.55,0,0,0,.46-.8c.22-.34.34-.79.56-1.13a3.2,3.2,0,0,0,.46-.9.59.59,0,0,1,.23-.46c.11-.22.11-.22.11-.34s-.11-.11,0-.22v-.34a.11.11,0,0,0-.11-.11.21.21,0,0,0-.34.11c-.23.11-.23.34-.34.56v.12l-.23.22c0,.12-.11.12-.23.23v.34c-.11.11-.11.34-.22.45s-.12.23-.23.34L208,152c-.11.22-.11.34-.22.56a1,1,0,0,0-.12.57v.11a1.93,1.93,0,0,1-.23.79.61.61,0,0,1-.34.46c0,.11-.11.22-.22.34v.11A.83.83,0,0,0,206.59,155.46Zm3.29-6.68v.34l.11.11s.23-.11.8-1.13a2,2,0,0,0,.22-.79c0-.11.12-.11.23-.57s.57-1,.34-1.13v.11a4.45,4.45,0,0,0-.56.8c-.35.56-.8,1.13-1,1.58S209.77,148.67,209.88,148.78Zm1.81,1.59c0,.11-.11.11-.11.22s-.23.12-.23.23-.23.34-.11.45,0,.11.11.23l.11-.12.23-.22c.23-.11.23-.11.23-.23l.11-.11a.42.42,0,0,0,.11-.34.74.74,0,0,0,.23-.34c.11-.11.11-.34.23-.57a3.19,3.19,0,0,1,.34-.67,1.69,1.69,0,0,0,.22-.68v-.34a.36.36,0,0,0,.12-.23l-.11-.11v-.34a.12.12,0,0,1-.12-.12,1.14,1.14,0,0,0-.34.12.69.69,0,0,0-.11.45c0,.11-.11.11-.11.23s-.12.11-.23.11v.57c0,.11-.11.11-.11.22s-.12,0-.23.11-.12.23-.12.46,0,.22,0,.34v.11A1.06,1.06,0,0,1,211.69,150.37Zm1.25-3.51a.11.11,0,0,1,.11.11c0,.11.12.11.12.11.22,0,.34-.45.45-.79a1.54,1.54,0,0,0,.11-.56l.12-.34c0-.12.22-.8,0-.8h-.12a1.6,1.6,0,0,1-.22.68,2.53,2.53,0,0,0-.46,1A2,2,0,0,0,212.94,146.86Zm2.39-9.62s-2.6-3.18-.68-5.89,8.27,1.59,7.13,4.42C220.76,138.37,216.34,138.94,215.33,137.24Z" transform="translate(-11.63 -8.55)"/><path d="M249.51,145.65c.91-2,1.13-3.51.68-4.42a1.09,1.09,0,0,0-.45-.56,4,4,0,0,0-1.36-.46c-7.7-.8-14.17,15.95-14.17,15.95s-9.64,24.22-.47,24.8c4.3.23,10.08-3.62,16.76-11.19a97.4,97.4,0,0,0,10.09-13.47,1.12,1.12,0,0,1,1.59-.34,1.23,1.23,0,0,1,.34,1.59,110.87,110.87,0,0,1-10.32,13.69c-7,8-13.15,12-18.24,12a7.74,7.74,0,0,1-1.59-.11c-17.43-2.74-6.42-28.88-6.42-28.88,6.24-15.39,17.23-17.65,22.55-16.51a10.49,10.49,0,0,1,1.92.68,4,4,0,0,1,1.81,1.82c.79,1.58.56,3.62-.68,6.34a1.28,1.28,0,0,1-1,.67c-.23,0-.34-.11-.46-.11C249.51,146.78,249.17,146.21,249.51,145.65Zm-22.34,32.58-.11-.11c0-.11-.11-.23-.23-.34v-.11a.11.11,0,0,0-.11-.12v-.22h-.11c0-.12-.12-.12-.12-.23s-.11-.23-.11-.34a3.89,3.89,0,0,1-.34-.68.57.57,0,0,0-.11-.34c0-.22-.11-.45-.11-.68a2.9,2.9,0,0,1-.34-1.13c0-.34-.12-.57-.12-.79a.11.11,0,0,0-.11-.12v-1c-.11-.11-.11-.11-.11-.22v-.34a.11.11,0,0,0-.11-.11c-.12,0-.12,0-.12.11a.11.11,0,0,0-.11.11h-.11v1.59a1.23,1.23,0,0,0,.11.56,4629744900186.22,4629744900186.22,0,0,0,.22.68c0,.12-.11.23,0,.45s.12.34.23.68a.59.59,0,0,0,.23.46c0,.11,0,.11.11.11.11.23.11.34.22.57l.23.22c0,.12.11.23.11.34v.12c.12.22.12.34.23.45s.34.57.68.57h.11Zm.69-7.47a.15.15,0,0,0,0-.22l-.11-.12v-.22h-.12c0-.12-.11-.12-.22-.12l-.12.11a.89.89,0,0,0-.11.46v.11c.11,0,0,.11,0,.23a.11.11,0,0,0-.11.11c-.12.11,0,.23,0,.34s.12.23.12.34l-.12.11a.43.43,0,0,0-.11.34v.46c0,.11.11.22.11.34s.12,0,.12.11.11.23.11.45,0,.23,0,.34v.34a.69.69,0,0,0,.11.45c.11,0,.11.12.11.12h.12v-.23c.11-.11.11-.11.11-.23s.11-.22.11-.33-.11-.12,0-.23,0-.23-.11-.23v-.34a.39.39,0,0,0,.12-.34v-.11a.34.34,0,0,1-.12-.23c0-.34.12-.56.12-.79a1,1,0,0,0,0-.57v-.45Zm-.56-7.47h.11a.11.11,0,0,0,.12-.11V163c.11,0,.11-.11.11-.23a.11.11,0,0,1,.11-.11c0-.11.12-.11.12-.23v-.11a.43.43,0,0,0-.23-.11v-.23a.49.49,0,0,0-.11-.34h-.12c-.11,0-.11.23-.11.34v.79l-.11.12A2.66,2.66,0,0,0,227.3,163.29Zm1,4.08a.11.11,0,0,0-.11.11l-.11.23a9,9,0,0,0-.68,1.58v.45l.11.12a.11.11,0,0,0,.11.11c.12,0,.23,0,.46-.79a1.58,1.58,0,0,0,.11-.57v-.34C228.31,167.93,228.43,167.48,228.31,167.37Zm.58-9.06v-.11a.12.12,0,0,1-.11-.12h-.46v.11c-.22.12-.22.34-.22.68v.23a.34.34,0,0,0-.12.23c0,.11,0,.11-.11.22V160c0,.11-.11.22,0,.34v.11H228c.11,0,.12-.11.12-.23v-.11c.11,0,.11-.23.22-.34s0-.11.12-.23a.38.38,0,0,1,.11-.22.43.43,0,0,0,.11-.34.42.42,0,0,0,.12-.23A.86.86,0,0,0,228.89,158.31Zm.68-2.27c-.11-.11-.34,0-.45,0a.74.74,0,0,0-.23.57c0,.23-.11.23-.11.34a.4.4,0,0,0-.12.34c-.11.23-.11.34,0,.45s.12,0,.12.12h.11c.11,0,.11,0,.11-.12s0-.11.12-.22a.72.72,0,0,0,.11-.46c.11-.11.11-.22.23-.34.11-.34.11-.34.11-.45V156Zm2.72-5.88v-.34c0-.11,0-.11-.11-.11s-.34,0-.34,0c-.22.22-.23.45-.34.56v.12c0,.11-.11.11-.23.22s-.11.12-.11.23-.11.22-.11.34a.64.64,0,0,0-.12.45c-.11.11-.11.23-.22.23s-.23.11-.23.34-.23.22-.23.56a.88.88,0,0,0-.11.45v.23a1.48,1.48,0,0,1-.11.68.88.88,0,0,1-.23.45c-.11.12-.11.23-.23.34V155a.5.5,0,0,0-.11.56c0,.12,0,.12.11.12a.11.11,0,0,0,.11-.12c.12-.11.23-.22.23-.34l.34-.34c0-.11,0-.11.11-.22s.12-.34.12-.46.11-.22.23-.45.11-.34.22-.56a.41.41,0,0,0,.12-.34,3.12,3.12,0,0,1,.56-.91,7.13,7.13,0,0,1,.34-.79.9.9,0,0,1,.23-.57.41.41,0,0,0,.11-.34S232.18,150.16,232.29,150.16Zm2.27-3.62h-.11a10.89,10.89,0,0,0-1.93,2c-.22.45-.22.45-.23.67v.12a.33.33,0,0,0,.12.22c.11,0,.11-.11.22-.11.12-.23.35-.45.57-.9s.34-.57.46-.57,0-.23.34-.57l.34-.33c0-.12.11-.23.11-.34A.37.37,0,0,0,234.56,146.54Zm3.86-5-.12-.11a.38.38,0,0,0-.22.11c-.12,0-.12.11-.23.11l-.11.12h-.23a.41.41,0,0,0-.11.34.11.11,0,0,0-.12.11c-.11.11-.11.11-.22.11a.12.12,0,0,0-.12.12.82.82,0,0,0-.22.34c-.12.11-.12.11-.12.22v.11c0,.12-.11.23-.11.34l-.23.23c-.11,0-.11.11-.22.11s-.23.23-.12.46v.11c.12,0,.12-.11.23-.11l.11-.12a.39.39,0,0,0,.23-.11.11.11,0,0,1,.11-.11c.12-.12.12-.12.12-.23l.22-.23c.12,0,.23-.22.34-.33V143c.12-.11.23-.34.34-.45s.23-.11.34-.23a.38.38,0,0,1,.12-.22c.22,0,.22-.12.22-.12v-.11c.12,0,.12,0,.12-.11h.11C238.53,141.67,238.53,141.67,238.42,141.56Z" transform="translate(-11.63 -8.55)"/><path class="cls-2" d="M96.08,284.61v2.23a1,1,0,0,0,.46.65c.12.07,0,.44-.11.44H93.52c-.1,0-.22-.37-.1-.44s.46-.43.46-.65v-8.41c0-.22-.27-.51-.46-.66s0-.43.1-.43h3.62a3.43,3.43,0,0,1,3.69,3.36v.5a3.47,3.47,0,0,1-3.69,3.41Zm1.2-2.13c.93,0,1.36-.6,1.36-1.53s-.43-1.52-1.36-1.52h-1.2v3.05Z" transform="translate(-11.63 -8.55)"/><path class="cls-2" d="M104.21,284v2.83a1,1,0,0,0,.46.65c.12.07,0,.44-.11.44h-2.91c-.1,0-.22-.37-.1-.44s.46-.43.46-.65v-8.41c0-.22-.27-.51-.46-.66s0-.43.1-.43h3.62c2.1,0,3.69,1.1,3.69,3.06v.5a2.84,2.84,0,0,1-1.47,2.57l1.35,3.44c.08.22.53.44.62.58a.63.63,0,0,1,0,.44h-3c-.16,0-.35-.37-.16-.44s.44-.38.36-.59l-1-2.91a1.62,1.62,0,0,1-.31,0Zm1.2-2.13c.93,0,1.36-.3,1.36-1.23s-.43-1.22-1.36-1.22h-1.2v2.45Z" transform="translate(-11.63 -8.55)"/><path class="cls-2" d="M110,285v-4.65c0-2,1.59-3.13,3.57-3.13s3.57,1.16,3.57,3.13V285c0,2-1.58,3.12-3.57,3.12S110,286.93,110,285Zm3.57.83a1.55,1.55,0,0,0,1.68-1.52V281a1.69,1.69,0,0,0-3.36,0v3.27A1.56,1.56,0,0,0,113.54,285.79Z" transform="translate(-11.63 -8.55)"/><path class="cls-2" d="M125.21,280c0,.17-.37.35-.45.17s-.42-.68-.64-.68h-1.67v7.37a1,1,0,0,0,.46.65c.12.07,0,.44-.12.44h-2.9c-.1,0-.22-.37-.1-.44s.46-.43.46-.65v-7.37h-1.67c-.22,0-.51.38-.66.68s-.43,0-.43-.17v-2.64h7.72Z" transform="translate(-11.63 -8.55)"/><path class="cls-2" d="M125.45,277.77c-.12-.07,0-.43.1-.43h6.72V280c0,.17-.37.35-.43.17s-.43-.68-.66-.68h-3.07v1.94h1.42a1,1,0,0,0,.65-.46c.08-.12.44,0,.44.11v2.83c0,.1-.36.22-.44.1a1,1,0,0,0-.65-.45h-1.42v2.25h3.07c.23,0,.51-.39.66-.68s.43,0,.43.16v2.66h-6.72c-.1,0-.22-.37-.1-.44s.46-.43.46-.65v-8.41C125.91,278.21,125.64,277.92,125.45,277.77Z" transform="translate(-11.63 -8.55)"/><path class="cls-2" d="M136.23,288.08c-2,0-3.57-1.15-3.57-3.12v-4.67c0-2,1.59-3.11,3.57-3.11s3.55,1.16,3.55,3.11v1.22h-2.17c-.09,0-.18-.36-.09-.44a1.3,1.3,0,0,0,.32-.45,1.59,1.59,0,0,0-1.62-1.15,1.55,1.55,0,0,0-1.67,1.53v3.27a1.67,1.67,0,0,0,3.33,0v-.59h1.9V285C139.78,286.93,138.18,288.08,136.23,288.08Z" transform="translate(-11.63 -8.55)"/><path class="cls-2" d="M148.2,280c0,.17-.36.35-.44.17s-.42-.68-.65-.68h-1.66v7.37a1,1,0,0,0,.45.65c.12.07,0,.44-.11.44h-2.9c-.1,0-.22-.37-.1-.44a1.07,1.07,0,0,0,.45-.65v-7.37h-1.66c-.23,0-.52.38-.66.68s-.44,0-.44-.17v-2.64h7.72Z" transform="translate(-11.63 -8.55)"/><path class="cls-2" d="M151.64,285.06a3.36,3.36,0,0,1,2.27-2.92l-.25-.56c-1-2.26.25-4,1.93-4.23a2.46,2.46,0,0,1,3.12,2.15c.2,1.37-.63,2.43-2.37,3.08l.24.42a1.66,1.66,0,0,1,1.39-1,20.16,20.16,0,0,1,2.54.17c.68-.12.73-.76.23-.58-1.76.74-2.32-1.65-.79-1.94,2.07-.39,2.66,3.27.62,4a1.63,1.63,0,0,1-.42.08,3,3,0,0,1-.47,3.16l.66-.16c.11-.91,1.34-1,1.4-.15.1,1.33-1.78,1.61-3.29,1.08a5.94,5.94,0,0,1-2.33.43C152.83,288.06,151.64,286.71,151.64,285.06Zm4.48,1.29.5,0a11.77,11.77,0,0,1-2.08-2.87,1.57,1.57,0,0,0-.73,1.35C153.88,285.75,154.77,286.35,156.12,286.35Zm-.42-5c.71-.41,1.2-.71,1.11-1.3s-.43-.95-.91-.92c-.71,0-.8.76-.4,1.73Zm2.66,4.24a1.72,1.72,0,0,0,0-2.27h-.18a.76.76,0,0,0-.75,1.15A10.5,10.5,0,0,0,158.36,285.6Z" transform="translate(-11.63 -8.55)"/><path class="cls-2" d="M167.73,284.61v2.23a1,1,0,0,0,.46.65c.12.07,0,.44-.12.44h-2.9c-.1,0-.22-.37-.1-.44s.46-.43.46-.65v-8.41c0-.22-.27-.51-.46-.66s0-.43.1-.43h3.62a3.43,3.43,0,0,1,3.69,3.36v.5a3.47,3.47,0,0,1-3.69,3.41Zm1.2-2.13c.92,0,1.36-.6,1.36-1.53s-.44-1.52-1.36-1.52h-1.2v3.05Z" transform="translate(-11.63 -8.55)"/><path class="cls-2" d="M175.86,284v2.83a1,1,0,0,0,.45.65c.13.07,0,.44-.11.44h-2.9c-.1,0-.22-.37-.1-.44s.46-.43.46-.65v-8.41c0-.22-.27-.51-.46-.66s0-.43.1-.43h3.62c2.1,0,3.69,1.1,3.69,3.06v.5a2.86,2.86,0,0,1-1.47,2.57l1.35,3.44c.07.22.53.44.62.58s0,.44-.05.44h-3c-.17,0-.36-.37-.17-.44s.45-.38.37-.59l-1-2.91a1.62,1.62,0,0,1-.31,0Zm1.2-2.13c.92,0,1.36-.3,1.36-1.23s-.44-1.22-1.36-1.22h-1.2v2.45Z" transform="translate(-11.63 -8.55)"/><path class="cls-2" d="M181.56,277.77c-.12-.07,0-.43.1-.43h6.72V280c0,.17-.37.35-.43.17s-.43-.68-.66-.68h-3.07v1.94h1.43a1,1,0,0,0,.64-.46c.08-.12.44,0,.44.11v2.83c0,.1-.36.22-.44.1a1,1,0,0,0-.64-.45h-1.43v2.25h3.07c.23,0,.51-.39.66-.68s.43,0,.43.16v2.66h-6.72c-.1,0-.22-.37-.1-.44s.46-.43.46-.65v-8.41C182,278.21,181.75,277.92,181.56,277.77Z" transform="translate(-11.63 -8.55)"/><path class="cls-2" d="M188.57,286.49l.88-1.81.21-.46c0-.09.42,0,.43.1s.14.69.34.8a3.93,3.93,0,0,0,2,.67c1,0,1.18-.36,1.18-.86s-.59-.91-2.43-1.95c-1.47-.84-2-1.64-2-2.92a2.91,2.91,0,0,1,3.17-2.92,6.4,6.4,0,0,1,3.2.83l-1,2-.21.44c-.05.1-.43,0-.44-.1s-.18-.59-.39-.68a3,3,0,0,0-1.05-.16c-.74,0-1.13.34-1.13.73s.47.74,1.85,1.55c1.86,1.1,2.44,1.92,2.44,3.37a3,3,0,0,1-3.29,3A5.35,5.35,0,0,1,188.57,286.49Z" transform="translate(-11.63 -8.55)"/><path class="cls-2" d="M195.84,277.77c-.12-.07,0-.43.1-.43h6.72V280c0,.17-.37.35-.43.17s-.43-.68-.66-.68H198.5v1.94h1.42a1,1,0,0,0,.65-.46c.08-.12.44,0,.44.11v2.83c0,.1-.36.22-.44.1a1,1,0,0,0-.65-.45H198.5v2.25h3.07c.23,0,.51-.39.66-.68s.43,0,.43.16v2.66h-6.72c-.1,0-.22-.37-.1-.44s.46-.43.46-.65v-8.41C196.3,278.21,196,277.92,195.84,277.77Z" transform="translate(-11.63 -8.55)"/><path class="cls-2" d="M205.56,284v2.83a1,1,0,0,0,.46.65c.12.07,0,.44-.11.44H203c-.1,0-.22-.37-.1-.44s.46-.43.46-.65v-8.41c0-.22-.27-.51-.46-.66s0-.43.1-.43h3.62c2.1,0,3.69,1.1,3.69,3.06v.5a2.86,2.86,0,0,1-1.47,2.57l1.35,3.44c.08.22.53.44.62.58a.63.63,0,0,1,0,.44h-3c-.17,0-.35-.37-.17-.44s.45-.38.37-.59l-1-2.91a1.62,1.62,0,0,1-.31,0Zm1.2-2.13c.93,0,1.36-.3,1.36-1.23s-.43-1.22-1.36-1.22h-1.2v2.45Z" transform="translate(-11.63 -8.55)"/><path class="cls-2" d="M213.44,287.49a.52.52,0,0,0,.36-.61l-2.59-8.5c-.07-.21-.54-.46-.69-.61s0-.43.1-.43h2.92c.15,0,.29.36.15.43a.52.52,0,0,0-.29.61l1.82,6.28,1.84-6.28a.54.54,0,0,0-.29-.61c-.16-.07,0-.43.13-.43h2.94c.09,0,.18.36.09.43s-.61.4-.68.61l-2.6,8.5a.56.56,0,0,0,.37.61c.17.07,0,.44-.16.44h-3.25C213.44,287.93,213.27,287.56,213.44,287.49Z" transform="translate(-11.63 -8.55)"/><path class="cls-2" d="M220.15,277.77c-.12-.07,0-.43.1-.43H227V280c0,.17-.37.35-.44.17s-.42-.68-.65-.68h-3.07v1.94h1.42a1,1,0,0,0,.65-.46c.08-.12.44,0,.44.11v2.83c0,.1-.36.22-.44.1a1.07,1.07,0,0,0-.65-.45h-1.42v2.25h3.07c.23,0,.51-.39.65-.68s.44,0,.44.16v2.66h-6.72c-.1,0-.22-.37-.1-.44s.46-.43.46-.65v-8.41C220.61,278.21,220.34,277.92,220.15,277.77Z" transform="translate(-11.63 -8.55)"/><path class="cls-2" d="M295.6,195.15c0,.72-60.17,1.29-134.39,1.29s-134.39-.57-134.39-1.29,60.17-1.29,134.39-1.29S295.6,194.44,295.6,195.15Z" transform="translate(-11.63 -8.55)"/><path class="cls-2" d="M286.12,193.83l2.54,0a38.36,38.36,0,0,0,5.77-.23,10.31,10.31,0,0,0,3.48-1,5.38,5.38,0,0,0,2.47-2.6,4.28,4.28,0,0,0-2.06-5.5,3,3,0,0,0-3,0,2.28,2.28,0,0,0,.22,3.95,1.72,1.72,0,0,0,1.84-.1,1.17,1.17,0,0,0,.11-1.71.6.6,0,0,0-.53-.15.34.34,0,0,0-.22.45c.07.12.21.17.3.27a.48.48,0,0,1-.23.71.91.91,0,0,1-.82-.17,1.23,1.23,0,0,1-.54-1,1.32,1.32,0,0,1,1-1.12,1.94,1.94,0,0,1,1.84.34,2.3,2.3,0,0,1,.79,1.63,3.41,3.41,0,0,1-.43,1.79,6.27,6.27,0,0,1-3.64,2.87,19,19,0,0,1-4.69.75c-2.21,0-4.45.33-6.66.47a1.13,1.13,0,0,0-.49.1s-.09.06-.07.11,0,0,.07,0a5.64,5.64,0,0,0,1.59.06Z" transform="translate(-11.63 -8.55)"/><path class="cls-2" d="M34.59,193.83l-2.54,0a38.36,38.36,0,0,1-5.77-.23,10.31,10.31,0,0,1-3.48-1,5.4,5.4,0,0,1-2.48-2.6,4.31,4.31,0,0,1,2.06-5.5,3,3,0,0,1,3,0,2.3,2.3,0,0,1,1,2,2.33,2.33,0,0,1-1.25,1.91,1.72,1.72,0,0,1-1.84-.1,1.17,1.17,0,0,1-.11-1.71.59.59,0,0,1,.52-.15.34.34,0,0,1,.23.45c-.07.12-.21.17-.3.27a.48.48,0,0,0,.23.71.89.89,0,0,0,.81-.17,1.18,1.18,0,0,0,.54-1,1.31,1.31,0,0,0-.95-1.12,1.94,1.94,0,0,0-1.84.34,2.3,2.3,0,0,0-.79,1.63,3.5,3.5,0,0,0,.42,1.79,6.29,6.29,0,0,0,3.65,2.87,18.91,18.91,0,0,0,4.69.75c2.2,0,4.45.33,6.66.47a1.16,1.16,0,0,1,.49.1.11.11,0,0,1,.07.11s0,0-.07,0a5.7,5.7,0,0,1-1.6.06Z" transform="translate(-11.63 -8.55)"/><path class="cls-2" d="M295.6,265.06c0-.71-60.17-1.29-134.39-1.29s-134.39.58-134.39,1.29,60.17,1.29,134.39,1.29S295.6,265.77,295.6,265.06Z" transform="translate(-11.63 -8.55)"/><path class="cls-2" d="M286.12,266.39l2.54,0a38.36,38.36,0,0,1,5.77.23,10.32,10.32,0,0,1,3.48,1.05,5.4,5.4,0,0,1,2.47,2.59,4.31,4.31,0,0,1,.06,3.16,4.36,4.36,0,0,1-2.12,2.35,3,3,0,0,1-3,0,2.29,2.29,0,0,1,.22-4,1.74,1.74,0,0,1,1.84.1,1.18,1.18,0,0,1,.11,1.71.58.58,0,0,1-.53.15.34.34,0,0,1-.22-.45c.07-.11.21-.17.3-.27a.47.47,0,0,0-.23-.7.91.91,0,0,0-.82.16,1.26,1.26,0,0,0-.54,1,1.3,1.3,0,0,0,1,1.12,2,2,0,0,0,1.84-.33,2.32,2.32,0,0,0,.79-1.63,3.41,3.41,0,0,0-.43-1.79,6.29,6.29,0,0,0-3.64-2.88,18.51,18.51,0,0,0-4.69-.74c-2.21,0-4.45-.34-6.66-.47a1,1,0,0,1-.49-.11s-.09-.06-.07-.1,0,0,.07-.05a5,5,0,0,1,1.59-.06Z" transform="translate(-11.63 -8.55)"/><path class="cls-2" d="M34.59,266.39l-2.54,0a38.36,38.36,0,0,0-5.77.23,10.32,10.32,0,0,0-3.48,1.05,5.42,5.42,0,0,0-2.48,2.59,4.33,4.33,0,0,0,2.06,5.51,3.07,3.07,0,0,0,3,0,2.29,2.29,0,0,0-.22-4,1.74,1.74,0,0,0-1.84.1,1.17,1.17,0,0,0-.11,1.71.56.56,0,0,0,.52.15.34.34,0,0,0,.23-.45c-.07-.11-.21-.17-.3-.27a.47.47,0,0,1,.23-.7.88.88,0,0,1,.81.16,1.2,1.2,0,0,1,.54,1,1.29,1.29,0,0,1-.95,1.12,2,2,0,0,1-1.84-.33,2.32,2.32,0,0,1-.79-1.63,3.5,3.5,0,0,1,.42-1.79,6.31,6.31,0,0,1,3.65-2.88,18.44,18.44,0,0,1,4.69-.74c2.2,0,4.45-.34,6.66-.47a1,1,0,0,0,.49-.11s.08-.06.07-.1,0,0-.07-.05a5,5,0,0,0-1.6-.06Z" transform="translate(-11.63 -8.55)"/></svg>